<?xml version="1.0" encoding="utf-8"?>
<!-- Generator: Adobe Illustrator 22.0.1, SVG Export Plug-In . SVG Version: 6.00 Build 0)  -->
<svg version="1.1" xmlns="http://www.w3.org/2000/svg" xmlns:xlink="http://www.w3.org/1999/xlink" x="0px" y="0px"
	 viewBox="0 0 536 383.9" style="enable-background:new 0 0 536 383.9;" xml:space="preserve">
<style type="text/css">
	.st0{display:none;}
	.st1{fill:none;stroke:#BFBFBF;stroke-width:6;stroke-linejoin:round;stroke-miterlimit:10;stroke-dasharray:12;}
	.st2{fill:#D39200;}
	.st3{fill:#FF0000;}
	.st4{fill:#AD7700;}
	.st5{fill:#966502;}
	.st6{fill:#F6B20B;}
	.st7{fill:#AAAAAA;}
	.st8{fill:#FFFFFF;}
</style>
<g id="Calque_1" class="st0">
	
		<image style="display:inline;overflow:visible;" width="1921" height="957" xlink:href="idées/ff.PNG"  transform="matrix(0.9344 0 0 0.9344 -275 -863.4676)">
	</image>
</g>
<g id="Calque_9">
</g>
<g id="Calque_6">
</g>
<g id="Calque_7">
	<g>
		<path class="st1" d="M292.5,133.7c0,0-20.7-51.3-98.6-26.2S51.4,49,51.4,49"/>
		<path class="st1" d="M284.9,155.2c-8-17.9-25.1-29.3-43.9-32.3c-13.5-1.8-26.6-1.7-39.3,1.5c-11.7,3-24,8-36,9
			c-25,2.1-48.5-5.1-70-17.9"/>
		<polygon class="st2" points="514.2,91.1 484.1,74.6 455.8,91.1 484.7,120 		"/>
		<path class="st2" d="M397.4,42.2l-24.2-12.4l36-20.6c4.5-2.9,10.2-5.5,17.1-6.2c26.2-2.8,44.6,24.5,45.4,25.7L397.4,42.2z"/>
		<path class="st4" d="M397.4,91.1c-7.9-4.7-15.7-9.4-23.6-14.2c-0.2-15.7-0.4-31.5-0.6-47.2l24.2,12.4V91.1z"/>
		<path class="st4" d="M373.3,259.2l24.1,15.9v43.6c-0.2,0.1-0.3,0.3-0.3,0.4c-7.8-4.7-15.5-9.3-23.3-14
			C373.6,289.9,373.4,274.6,373.3,259.2C373.3,259.3,373.3,259.3,373.3,259.2z"/>
		<path class="st5" d="M373.3,259.2l24.1,15.9h17.1l28.9-31.3l16.5-98.5l-37.2-5.9c0,0-20.1,0.6-20.1,50.7s0,44.8-20.1,61.3
			c-3.9,3.2-6.6,5.4-8.5,7C373.9,258.8,373.6,259,373.3,259.2z"/>
		<path class="st4" d="M405.1,85.2c0,8.1,0,16.1,0,24.2c0,4,0,8.1,0,12.1c0,5.1,0.2,8.6,3.3,12.7c2.2,2.9,4.6,5.6,7.2,8.1
			c6.5,6.1,14.6,10.7,23.7,10.8c10.7,0.1,21.1-6.1,20.6-7.7c-0.3-1-5.6-0.9-22.4,2.4l1.8-73.1L411,70.5L405.1,85.2z"/>
		<path class="st6" d="M513.9,141.5V91.4L490.3,105c0,0-14.7,6.5-13-13.6c1.8-20.1,0-40.1,0-40.1s-1.8-48.4-37.2-30.7
			s-43.1,21.8-43.1,21.8v48.9c0,0,32.4-28.9,32.4,1.8s0,41.9,0,41.9s-1.2,24.8,21.8,16.5c0,0-21.8,13.6-21.8,52.5
			s8.3,51.3-32.4,70.8V319l50.1-25.9c0,0,28.9-20.6,30.1-69S468.5,162.8,513.9,141.5z"/>
		<path class="st4" d="M269.9,100.7L245.8,86c0,0-76.1,36.6-77.3,88.5c-1.2,51.9,0,44.8,0,44.8s2.4,24.2-14.2,35.4
			c-16.5,11.2-23,13.6-23,13.6l23,11.2l1.8,1.8l29.5-15.3l10-30.1l11.8-57.8L269.9,100.7z"/>
		<polygon class="st5" points="131,268.2 131,316.2 155.2,330.5 157,329.3 155.8,279.5 134,268.2 		"/>
		<path class="st5" d="M172,310.6c0,8.3,0,16.7,0,25c0,4.2,0,8.3,0,12.5c0,5.2,0.3,8.9,4.8,13.1c3.2,3,6.6,5.8,10.5,8.3
			c9.4,6.3,21.2,11.1,34.3,11.1c15.5,0.1,30.6-6.3,29.9-7.9c-0.4-1.1-8.1-0.9-32.5,2.4l2.6-75.6l-41-4.3L172,310.6z"/>
		<polygon class="st2" points="269.9,335.5 242.8,319 233.4,325.4 235.1,345.5 252.8,344.9 		"/>
		<polygon class="st2" points="229.2,272.4 218,267.1 213.9,270.6 221,273 		"/>
		<path class="st6" d="M154.3,279.4c4.5-2.2,9-4.3,13.6-6.5c4.2-2.2,11-6.4,15.9-14.2c5.4-8.4,5.9-16.9,6.5-28.3
			c0.7-14.3-1.6-16.9-1.2-29.5c0.1-2,0.6-15.2,5.3-29.5c8-24.1,23.9-38.8,31.3-45.4c16.3-14.7,33.3-21.8,44.2-25.4v46
			c0,0-34.8,14.2-32.4,41.3s4.1,63.7-21.2,82.6c0,0,6.1-2.2,11.6,0.9c6.1,3.5,7.2,11.6,8.5,20.9c1.6,11.6,0.6,26.6,0.6,30.1
			c0,0.8,0,1.6,0,2.4c0,0.4,0,0.8,0,1.2c0,1.5-0.2,13,6.1,16.1c3.1,1.5,7.2-0.1,15.7-2.5c5-1.4,11.2-4.1,11.2-4.1V372
			c0,0-28.3,12.5-50.7,8.3c-6.6-0.3-13.3-2-18.4-6.7c-6.9-6.4-7.9-17.5-8.2-19.3c-0.6-4.6,0-7.3,0-27.1v-2.9c0,0-1.2-17.1-21.2-3.5
			c-20.1,13.6-15.9,8.8-15.9,8.8C155.1,312.9,154.7,296.1,154.3,279.4z"/>
		<polygon class="st7" points="317.5,186.7 319.5,200.7 416.5,233.7 		"/>
		<polygon class="st7" points="325.5,155.7 321.5,172.7 416.5,233.7 		"/>
		<polygon class="st8" points="280.5,173.7 308.5,161.7 416.5,233.7 		"/>
		<polygon class="st8" points="325.5,155.7 353.5,143.7 416.5,233.7 		"/>
	</g>
</g>
</svg>
