<?xml version="1.0" encoding="utf-8"?>
<!-- Generator: Adobe Illustrator 22.0.1, SVG Export Plug-In . SVG Version: 6.00 Build 0)  -->
<svg version="1.1" xmlns="http://www.w3.org/2000/svg" xmlns:xlink="http://www.w3.org/1999/xlink" x="0px" y="0px"
	 viewBox="0 0 528.1 381.6" style="enable-background:new 0 0 528.1 381.6;" xml:space="preserve">
<style type="text/css">
	.st0{display:none;}
	.st1{fill:none;stroke:#BFBFBF;stroke-width:6;stroke-linejoin:round;stroke-miterlimit:10;stroke-dasharray:12;}
	.st2{fill:#D39200;}
	.st3{fill:#FF0000;}
	.st4{fill:#AD7700;}
	.st5{fill:#966502;}
	.st6{fill:#F6B20B;}
	.st7{fill:#AAAAAA;}
	.st8{fill:#FFFFFF;}
</style>
<g id="Calque_1" class="st0">
</g>
<g id="Calque_9">
</g>
<g id="Calque_6">
	<g>
		<path class="st1" d="M245.1,132.3c0,0,20.7-51.3,98.6-26.2s142.5-58.5,142.5-58.5"/>
		<path class="st1" d="M252.7,153.9c8-17.9,25.1-29.3,43.9-32.3c13.5-1.8,26.6-1.7,39.3,1.5c11.7,3,24,8,36,9
			c25,2.1,48.5-5.1,70-17.9"/>
		<polygon class="st2" points="23.4,89.8 53.4,73.3 81.7,89.8 52.8,118.7 		"/>
		<path class="st2" d="M140.1,40.8l24.2-12.4l-36-20.6c-4.5-2.9-10.2-5.5-17.1-6.2C85-1.2,66.6,26.1,65.8,27.3L140.1,40.8z"/>
		<path class="st4" d="M140.1,89.8c7.9-4.7,15.7-9.4,23.6-14.2c0.2-15.7,0.4-31.5,0.6-47.2l-24.2,12.4V89.8z"/>
		<path class="st4" d="M164.2,257.9l-24.1,15.9v43.6c0.2,0.1,0.3,0.3,0.3,0.4c7.8-4.7,15.5-9.3,23.3-14
			C163.9,288.6,164.1,273.3,164.2,257.9C164.3,258,164.2,258,164.2,257.9z"/>
		<path class="st5" d="M164.2,257.9l-24.1,15.9H123l-28.9-31.3l-16.5-98.5l37.2-5.9c0,0,20.1,0.6,20.1,50.7s0,44.8,20.1,61.3
			c3.9,3.2,6.6,5.4,8.5,7C163.7,257.4,164,257.7,164.2,257.9z"/>
		<path class="st4" d="M132.5,83.9c0,8.1,0,16.1,0,24.2c0,4,0,8.1,0,12.1c0,5.1-0.2,8.6-3.3,12.7c-2.2,2.9-4.6,5.6-7.2,8.1
			c-6.5,6.1-14.6,10.7-23.7,10.8c-10.7,0.1-21.1-6.1-20.6-7.7c0.3-1,5.6-0.9,22.4,2.4l-1.8-73.1l28.3-4.1L132.5,83.9z"/>
		<path class="st6" d="M23.6,140.2V90.1l23.6,13.6c0,0,14.7,6.5,13-13.6s0-40.1,0-40.1S62,1.6,97.4,19.3s43.1,21.8,43.1,21.8v48.9
			c0,0-32.4-28.9-32.4,1.8s0,41.9,0,41.9s1.2,24.8-21.8,16.5c0,0,21.8,13.6,21.8,52.5s-8.3,51.3,32.4,70.8v44.2l-50.1-25.9
			c0,0-28.9-20.6-30.1-69S69.1,161.4,23.6,140.2z"/>
		<path class="st4" d="M267.6,99.4l24.2-14.7c0,0,76.1,36.6,77.3,88.5s0,44.8,0,44.8s-2.4,24.2,14.2,35.4s23,13.6,23,13.6l-23,11.2
			l-1.8,1.8l-29.5-15.3l-10-30.1l-11.8-57.8L267.6,99.4z"/>
		<polygon class="st5" points="406.5,266.9 406.5,314.9 382.3,329.1 380.6,328 381.7,278.2 403.6,266.9 		"/>
		<path class="st5" d="M365.5,309.3c0,8.3,0,16.7,0,25c0,4.2,0,8.3,0,12.5c0,5.2-0.3,8.9-4.8,13.1c-3.2,3-6.6,5.8-10.5,8.3
			c-9.4,6.3-21.2,11.1-34.3,11.1c-15.5,0.1-30.6-6.3-29.9-7.9c0.4-1.1,8.1-0.9,32.5,2.4l-2.6-75.6l41-4.3L365.5,309.3z"/>
		<polygon class="st2" points="267.6,334.2 294.7,317.6 304.2,324.1 302.4,344.2 284.7,343.6 		"/>
		<polygon class="st2" points="308.3,271.1 319.5,265.7 323.6,269.3 316.6,271.6 		"/>
		<path class="st6" d="M383.2,278.1c-4.5-2.2-9-4.3-13.6-6.5c-4.2-2.2-11-6.4-15.9-14.2c-5.4-8.4-5.9-16.9-6.5-28.3
			c-0.7-14.3,1.6-16.9,1.2-29.5c-0.1-2-0.6-15.2-5.3-29.5c-8-24.1-23.9-38.8-31.3-45.4c-16.3-14.7-33.3-21.8-44.2-25.4v46
			c0,0,34.8,14.2,32.4,41.3c-2.4,27.1-4.1,63.7,21.2,82.6c0,0-6.1-2.2-11.6,0.9c-6.1,3.5-7.2,11.6-8.5,20.9
			c-1.6,11.6-0.6,26.6-0.6,30.1c0,0.8,0,1.6,0,2.4c0,0.4,0,0.8,0,1.2c0,1.5,0.2,13-6.1,16.1c-3.1,1.5-7.2-0.1-15.7-2.5
			c-5-1.4-11.2-4.1-11.2-4.1v36.5c0,0,28.3,12.5,50.7,8.3c6.6-0.3,13.3-2,18.4-6.7c6.9-6.4,7.9-17.5,8.2-19.3c0.6-4.6,0-7.3,0-27.1
			V323c0,0,1.2-17.1,21.2-3.5s15.9,8.8,15.9,8.8C382.4,311.6,382.8,294.8,383.2,278.1z"/>
		<polygon class="st7" points="220,185.4 218,199.4 121,232.4 		"/>
		<polygon class="st7" points="212,154.4 216,171.4 121,232.4 		"/>
		<polygon class="st8" points="257,172.4 229,160.4 121,232.4 		"/>
		<polygon class="st8" points="212,154.4 184,142.4 121,232.4 		"/>
	</g>
</g>
<g id="Calque_7">
</g>
</svg>
