<?xml version="1.0" encoding="utf-8"?>
<!-- Generator: Adobe Illustrator 22.0.1, SVG Export Plug-In . SVG Version: 6.00 Build 0)  -->
<svg version="1.1" id="Calque_1" xmlns="http://www.w3.org/2000/svg" xmlns:xlink="http://www.w3.org/1999/xlink" x="0px" y="0px"
	 viewBox="0 0 158.8 330.1" style="enable-background:new 0 0 158.8 330.1;" xml:space="preserve">
<style type="text/css">
	.st0{display:none;}
	.st1{display:inline;}
	.st2{fill:none;stroke:#BFBFBF;stroke-width:6;stroke-linejoin:round;stroke-miterlimit:10;stroke-dasharray:12;}
	.st3{fill:#AD7700;}
	.st4{fill:#D39200;}
	.st5{fill:#966502;}
	.st6{fill:#F6B20B;}
	.st7{fill:#AAAAAA;}
	.st8{fill:#FFFFFF;}
</style>
<g id="Calque_6" class="st0">
	<g class="st1">
		<g>
			<path class="st3" d="M148.9,260l-24.1,15.9v43.6c0.2,0.1,0.3,0.3,0.3,0.4c7.8-4.7,15.5-9.3,23.3-14
				C148.6,290.7,148.8,275.4,148.9,260C148.9,260.1,148.9,260.1,148.9,260z"/>
			<g>
				<polygon class="st4" points="8,91.9 38.1,75.4 66.4,91.9 37.5,120.8 				"/>
				<path class="st4" d="M124.8,42.9L149,30.5L113,9.9c-4.5-2.9-10.2-5.5-17.1-6.2C69.7,0.9,51.3,28.2,50.5,29.4L124.8,42.9z"/>
				<path class="st3" d="M124.8,91.9c7.9-4.7,15.7-9.4,23.6-14.2c0.2-15.7,0.4-31.5,0.6-47.2l-24.2,12.4L124.8,91.9L124.8,91.9z"/>
				<path class="st5" d="M148.9,260l-24.1,15.9h-17.1l-28.9-31.3l-16.5-98.5l37.2-5.9c0,0,20.1,0.6,20.1,50.7s0,44.8,20.1,61.3
					c3.9,3.2,6.6,5.4,8.5,7C148.3,259.5,148.6,259.8,148.9,260z"/>
				<path class="st3" d="M117.1,86c0,8.1,0,16.1,0,24.2c0,4,0,8.1,0,12.1c0,5.1-0.2,8.6-3.3,12.7c-2.2,2.9-4.6,5.6-7.2,8.1
					c-6.5,6.1-14.6,10.7-23.7,10.8c-10.7,0.1-21.1-6.1-20.6-7.7c0.3-1,5.6-0.9,22.4,2.4l-1.8-73.1l28.3-4.1L117.1,86z"/>
				<path class="st6" d="M8.3,142.3V92.2l23.6,13.6c0,0,14.7,6.5,13-13.6s0-40.1,0-40.1S46.6,3.7,82,21.4s43.1,21.8,43.1,21.8v48.9
					c0,0-32.4-28.9-32.4,1.8s0,41.9,0,41.9s1.2,24.8-21.8,16.5c0,0,21.8,13.6,21.8,52.5s-8.3,51.3,32.4,70.8v44.2L75,293.9
					c0,0-28.9-20.6-30.1-69C43.7,176.5,53.7,163.5,8.3,142.3z"/>
			</g>
		</g>
		<polygon class="st7" points="204.7,187.5 202.7,201.5 105.7,234.5 		"/>
		<polygon class="st7" points="196.7,156.5 200.7,173.5 105.7,234.5 		"/>
		<polygon class="st8" points="241.7,174.5 213.7,162.5 105.7,234.5 		"/>
		<polygon class="st8" points="196.7,156.5 168.7,144.5 105.7,234.5 		"/>
	</g>
</g>
<g>
	<path class="st3" d="M150.7,266l-24.1,15.9v43.6c0.2,0.1,0.3,0.3,0.3,0.4c7.8-4.7,15.5-9.3,23.3-14
		C150.3,296.7,150.5,281.4,150.7,266C150.7,266.1,150.7,266.1,150.7,266z"/>
	<g>
		<polygon class="st4" points="9.8,97.9 39.9,81.4 68.2,97.9 39.3,126.8 		"/>
		<path class="st4" d="M126.6,48.9l24.2-12.4l-36-20.6c-4.5-2.9-10.2-5.5-17.1-6.2C71.4,6.9,53.1,34.2,52.3,35.4L126.6,48.9z"/>
		<path class="st3" d="M126.6,97.9c7.9-4.7,15.7-9.4,23.6-14.2c0.2-15.7,0.4-31.5,0.6-47.2l-24.2,12.4L126.6,97.9L126.6,97.9z"/>
		<path class="st5" d="M150.7,266l-24.1,15.9h-17.1l-28.9-31.3l-16.5-98.5l37.2-5.9c0,0,20.1,0.6,20.1,50.7s0,44.8,20.1,61.3
			c3.9,3.2,6.6,5.4,8.5,7C150.1,265.5,150.4,265.8,150.7,266z"/>
		<path class="st3" d="M118.9,92c0,8.1,0,16.1,0,24.2c0,4,0,8.1,0,12.1c0,5.1-0.2,8.6-3.3,12.7c-2.2,2.9-4.6,5.6-7.2,8.1
			c-6.5,6.1-14.6,10.7-23.7,10.8c-10.7,0.1-21.1-6.1-20.6-7.7c0.3-1,5.6-0.9,22.4,2.4l-1.8-73.1l28.3-4.1L118.9,92z"/>
		<path class="st6" d="M10.1,148.3V98.2l23.6,13.6c0,0,14.7,6.5,13-13.6s0-40.1,0-40.1s1.8-48.4,37.2-30.7S127,49.2,127,49.2v48.9
			c0,0-32.4-28.9-32.4,1.8s0,41.9,0,41.9s1.2,24.8-21.8,16.5c0,0,21.8,13.6,21.8,52.5s-8.3,51.3,32.4,70.8v44.2l-50.1-25.9
			c0,0-28.9-20.6-30.1-69C45.5,182.5,55.5,169.5,10.1,148.3z"/>
	</g>
</g>
</svg>
