<?xml version="1.0" encoding="utf-8"?>
<!-- Generator: Adobe Illustrator 22.0.1, SVG Export Plug-In . SVG Version: 6.00 Build 0)  -->
<svg version="1.1" id="Calque_1" xmlns="http://www.w3.org/2000/svg" xmlns:xlink="http://www.w3.org/1999/xlink" x="0px" y="0px"
	 viewBox="0 0 158.8 330.1" style="enable-background:new 0 0 158.8 330.1;" xml:space="preserve">
<style type="text/css">
	.st0{display:none;}
	.st1{display:inline;}
	.st2{fill:none;stroke:#BFBFBF;stroke-width:6;stroke-linejoin:round;stroke-miterlimit:10;stroke-dasharray:12;}
	.st3{fill:#AD7700;}
	.st4{fill:#D39200;}
	.st5{fill:#966502;}
	.st6{fill:#F6B20B;}
	.st7{fill:#AAAAAA;}
	.st8{fill:#FFFFFF;}
</style>
<g id="Calque_6" class="st0">
	<g class="st1">
		<path class="st2" d="M50.9,134.4c0,0,20.7-51.3,98.6-26.2S292,49.7,292,49.7"/>
		<path class="st2" d="M58.5,156c8-17.9,25.1-29.3,43.9-32.3c13.5-1.8,26.6-1.7,39.3,1.5c11.7,3,24,8,36,9c25,2.1,48.5-5.1,70-17.9"
			/>
		<g>
			<path class="st3" d="M73.5,101.5l24.2-14.7c0,0,76.1,36.6,77.3,88.5c1.2,51.9,0,44.8,0,44.8s-2.4,24.2,14.2,35.4
				c16.5,11.2,23,13.6,23,13.6l-23,11.2l-1.8,1.8l-29.5-15.3l-10-30.1l-11.8-57.8L73.5,101.5z"/>
			<path class="st5" d="M171.4,311.4c0,8.3,0,16.7,0,25c0,4.2,0,8.3,0,12.5c0,5.2-0.3,8.9-4.8,13.1c-3.2,3-6.6,5.8-10.5,8.3
				c-9.4,6.3-21.2,11.1-34.3,11.1c-15.5,0.1-30.6-6.3-29.9-7.9c0.4-1.1,8.1-0.9,32.5,2.4l-2.6-75.6l41-4.3L171.4,311.4z"/>
			<polygon class="st4" points="73.5,336.2 100.6,319.7 110,326.2 108.3,346.3 90.6,345.7 			"/>
			<polygon class="st4" points="114.2,273.1 125.4,267.8 129.5,271.4 122.4,273.7 			"/>
			<path class="st6" d="M189.1,280.2c-4.5-2.2-9-4.3-13.6-6.5c-4.2-2.2-11-6.4-15.9-14.2c-5.4-8.4-5.9-16.9-6.5-28.3
				c-0.7-14.3,1.6-16.9,1.2-29.5c-0.1-2-0.6-15.2-5.3-29.5c-8-24.1-23.9-38.8-31.3-45.4c-16.3-14.7-33.3-21.8-44.2-25.4v46
				c0,0,34.8,14.2,32.4,41.3s-4.1,63.7,21.2,82.6c0,0-6.1-2.2-11.6,0.9c-6.1,3.5-7.2,11.6-8.5,20.9c-1.6,11.6-0.6,26.6-0.6,30.1
				c0,0.8,0,1.6,0,2.4c0,0.4,0,0.8,0,1.2c0,1.5,0.2,13-6.1,16.1c-3.1,1.5-7.2-0.1-15.7-2.5c-5-1.4-11.2-4.1-11.2-4.1v36.5
				c0,0,28.3,12.5,50.7,8.3c6.6-0.3,13.3-2,18.4-6.7c6.9-6.4,7.9-17.5,8.2-19.3c0.6-4.6,0-7.3,0-27.1v-3c0,0,1.2-17.1,21.2-3.5
				c20.1,13.6,15.9,8.8,15.9,8.8C188.3,313.6,188.7,296.9,189.1,280.2z"/>
		</g>
		<polygon class="st7" points="25.9,187.5 23.9,201.5 -73.1,234.5 		"/>
		<polygon class="st7" points="17.9,156.5 21.9,173.5 -73.1,234.5 		"/>
		<polygon class="st8" points="62.9,174.5 34.9,162.5 -73.1,234.5 		"/>
		<polygon class="st8" points="17.9,156.5 -10.1,144.5 -73.1,234.5 		"/>
	</g>
</g>
<g>
	<path class="st3" d="M10.2,267.2c0.2,15.4,0.4,30.7,0.5,45.9c7.8,4.7,15.5,9.3,23.3,14c0-0.1,0.1-0.3,0.3-0.4v-43.6L10.2,267.2
		C10.2,267.3,10.2,267.3,10.2,267.2z"/>
	<g>
		<polygon class="st4" points="121.6,128 92.7,99.1 121,82.6 151.1,99.1 		"/>
		<path class="st4" d="M108.6,36.6c-0.8-1.2-19.1-28.5-45.4-25.7c-6.9,0.7-12.6,3.3-17.1,6.2l-36,20.6l24.2,12.4L108.6,36.6z"/>
		<path class="st3" d="M34.3,99.1l0-49L10.1,37.7c0.2,15.7,0.4,31.5,0.6,47.2C18.6,89.7,26.4,94.4,34.3,99.1L34.3,99.1z"/>
		<path class="st5" d="M10.9,266.4c1.9-1.6,4.6-3.8,8.5-7c20.1-16.5,20.1-11.2,20.1-61.3s20.1-50.7,20.1-50.7l37.2,5.9l-16.5,98.5
			l-28.9,31.3H34.3l-24.1-15.9C10.5,267,10.8,266.7,10.9,266.4z"/>
		<path class="st3" d="M47.9,78.6l28.3,4.1l-1.8,73.1c16.8-3.3,22.1-3.4,22.4-2.4c0.5,1.6-9.9,7.8-20.6,7.7
			c-9.1-0.1-17.2-4.7-23.7-10.8c-2.6-2.5-5-5.2-7.2-8.1c-3.1-4.1-3.3-7.6-3.3-12.7c0-4,0-8.1,0-12.1c0-8.1,0-16.1,0-24.2L47.9,78.6z
			"/>
		<path class="st6" d="M114.1,232.1c-1.2,48.4-30.1,69-30.1,69L33.9,327v-44.2c40.7-19.5,32.4-31.9,32.4-70.8s21.8-52.5,21.8-52.5
			c-23,8.3-21.8-16.5-21.8-16.5s0-11.2,0-41.9s-32.4-1.8-32.4-1.8V50.4c0,0,7.7-4.1,43.1-21.8s37.2,30.7,37.2,30.7s1.7,20,0,40.1
			c-1.7,20.1,13,13.6,13,13.6l23.6-13.6v50.1C105.4,170.7,115.4,183.7,114.1,232.1z"/>
	</g>
</g>
</svg>
