<?xml version="1.0" encoding="utf-8"?>
<!-- Generator: Adobe Illustrator 22.0.1, SVG Export Plug-In . SVG Version: 6.00 Build 0)  -->
<svg version="1.1" id="Calque_1" xmlns="http://www.w3.org/2000/svg" xmlns:xlink="http://www.w3.org/1999/xlink" x="0px" y="0px"
	 viewBox="0 0 398.8 385.1" style="enable-background:new 0 0 398.8 385.1;" xml:space="preserve">
<style type="text/css">
	.st0{display:none;}
	.st1{display:inline;}
	.st2{fill:none;stroke:#BFBFBF;stroke-width:6;stroke-linejoin:round;stroke-miterlimit:10;stroke-dasharray:12;}
	.st3{fill:#AD7700;}
	.st4{fill:#D39200;}
	.st5{fill:#966502;}
	.st6{fill:#F6B20B;}
	.st7{fill:#AAAAAA;}
	.st8{fill:#FFFFFF;}
	.st9{fill:#CCCCCC;}
</style>
<g id="Calque_1_1_" class="st0">
</g>
<g id="Calque_6" class="st0">
	<g class="st1">
		<path class="st2" d="M229.7,134.4c0,0,20.7-51.3,98.6-26.2s142.5-58.5,142.5-58.5"/>
		<path class="st2" d="M237.3,156c8-17.9,25.1-29.3,43.9-32.3c13.5-1.8,26.6-1.7,39.3,1.5c11.7,3,24,8,36,9c25,2.1,48.5-5.1,70-17.9
			"/>
		<g>
			<path class="st3" d="M148.9,260l-24.1,15.9v43.6c0.2,0.1,0.3,0.3,0.3,0.4c7.8-4.7,15.5-9.3,23.3-14
				C148.6,290.7,148.8,275.4,148.9,260C148.9,260.1,148.9,260.1,148.9,260z"/>
			<g>
				<polygon class="st4" points="8,91.9 38.1,75.4 66.4,91.9 37.5,120.8 				"/>
				<path class="st4" d="M124.8,42.9L149,30.5L113,9.9c-4.5-2.9-10.2-5.5-17.1-6.2C69.7,0.9,51.3,28.2,50.5,29.4L124.8,42.9z"/>
				<path class="st3" d="M124.8,91.9c7.9-4.7,15.7-9.4,23.6-14.2c0.2-15.7,0.4-31.5,0.6-47.2l-24.2,12.4L124.8,91.9L124.8,91.9z"/>
				<path class="st5" d="M148.9,260l-24.1,15.9h-17.1l-28.9-31.3l-16.5-98.5l37.2-5.9c0,0,20.1,0.6,20.1,50.7s0,44.8,20.1,61.3
					c3.9,3.2,6.6,5.4,8.5,7C148.3,259.5,148.6,259.8,148.9,260z"/>
				<path class="st3" d="M117.1,86c0,8.1,0,16.1,0,24.2c0,4,0,8.1,0,12.1c0,5.1-0.2,8.6-3.3,12.7c-2.2,2.9-4.6,5.6-7.2,8.1
					c-6.5,6.1-14.6,10.7-23.7,10.8c-10.7,0.1-21.1-6.1-20.6-7.7c0.3-1,5.6-0.9,22.4,2.4l-1.8-73.1l28.3-4.1L117.1,86z"/>
				<path class="st6" d="M8.3,142.3V92.2l23.6,13.6c0,0,14.7,6.5,13-13.6s0-40.1,0-40.1S46.6,3.7,82,21.4s43.1,21.8,43.1,21.8v48.9
					c0,0-32.4-28.9-32.4,1.8s0,41.9,0,41.9s1.2,24.8-21.8,16.5c0,0,21.8,13.6,21.8,52.5s-8.3,51.3,32.4,70.8v44.2L75,293.9
					c0,0-28.9-20.6-30.1-69C43.7,176.5,53.7,163.5,8.3,142.3z"/>
			</g>
		</g>
		<g>
			<path class="st3" d="M252.3,101.5l24.2-14.7c0,0,76.1,36.6,77.3,88.5c1.2,51.9,0,44.8,0,44.8s-2.4,24.2,14.2,35.4
				c16.5,11.2,23,13.6,23,13.6l-23,11.2l-1.8,1.8l-29.5-15.3l-10-30.1l-11.8-57.8L252.3,101.5z"/>
			<polygon class="st5" points="391.2,269 391.2,317 367,331.2 365.2,330 366.4,280.3 388.2,269 			"/>
			<path class="st5" d="M350.2,311.4c0,8.3,0,16.7,0,25c0,4.2,0,8.3,0,12.5c0,5.2-0.3,8.9-4.8,13.1c-3.2,3-6.6,5.8-10.5,8.3
				c-9.4,6.3-21.2,11.1-34.3,11.1c-15.5,0.1-30.6-6.3-29.9-7.9c0.4-1.1,8.1-0.9,32.5,2.4l-2.6-75.6l41-4.3L350.2,311.4z"/>
			<polygon class="st4" points="252.3,336.2 279.4,319.7 288.8,326.2 287.1,346.3 269.4,345.7 			"/>
			<polygon class="st4" points="293,273.1 304.2,267.8 308.3,271.4 301.2,273.7 			"/>
			<path class="st6" d="M367.9,280.2c-4.5-2.2-9-4.3-13.6-6.5c-4.2-2.2-11-6.4-15.9-14.2c-5.4-8.4-5.9-16.9-6.5-28.3
				c-0.7-14.3,1.6-16.9,1.2-29.5c-0.1-2-0.6-15.2-5.3-29.5c-8-24.1-23.9-38.8-31.3-45.4c-16.3-14.7-33.3-21.8-44.2-25.4v46
				c0,0,34.8,14.2,32.4,41.3s-4.1,63.7,21.2,82.6c0,0-6.1-2.2-11.6,0.9c-6.1,3.5-7.2,11.6-8.5,20.9c-1.6,11.6-0.6,26.6-0.6,30.1
				c0,0.8,0,1.6,0,2.4c0,0.4,0,0.8,0,1.2c0,1.5,0.2,13-6.1,16.1c-3.1,1.5-7.2-0.1-15.7-2.5c-5-1.4-11.2-4.1-11.2-4.1v36.5
				c0,0,28.3,12.5,50.7,8.3c6.6-0.3,13.3-2,18.4-6.7c6.9-6.4,7.9-17.5,8.2-19.3c0.6-4.6,0-7.3,0-27.1v-3c0,0,1.2-17.1,21.2-3.5
				c20.1,13.6,15.9,8.8,15.9,8.8C367.1,313.6,367.5,296.9,367.9,280.2z"/>
		</g>
		<polygon class="st7" points="204.7,187.5 202.7,201.5 105.7,234.5 		"/>
		<polygon class="st7" points="196.7,156.5 200.7,173.5 105.7,234.5 		"/>
		<polygon class="st8" points="241.7,174.5 213.7,162.5 105.7,234.5 		"/>
		<polygon class="st8" points="196.7,156.5 168.7,144.5 105.7,234.5 		"/>
	</g>
</g>
<g id="Calque_7" class="st0">
</g>
<g id="Calque_8">
	<g>
		<g>
			<path class="st3" d="M149.7,260l-24.1,15.9v43.6c0.2,0.1,0.3,0.3,0.3,0.4c7.8-4.7,15.5-9.3,23.3-14
				C149.3,290.7,149.5,275.4,149.7,260C149.7,260.1,149.7,260.1,149.7,260z"/>
			<g>
				<polygon class="st4" points="8.8,91.9 38.9,75.4 67.2,91.9 38.3,120.8 				"/>
				<path class="st4" d="M125.6,42.9l24.2-12.4l-36-20.6c-4.5-2.9-10.2-5.5-17.1-6.2C70.4,0.9,52.1,28.2,51.3,29.4L125.6,42.9z"/>
				<path class="st3" d="M125.6,91.9c7.9-4.7,15.7-9.4,23.6-14.2c0.2-15.7,0.4-31.5,0.6-47.2l-24.2,12.4L125.6,91.9L125.6,91.9z"/>
				<path class="st5" d="M149.7,260l-24.1,15.9h-17.1l-28.9-31.3l-16.5-98.5l37.2-5.9c0,0,20.1,0.6,20.1,50.7s0,44.8,20.1,61.3
					c3.9,3.2,6.6,5.4,8.5,7C149.1,259.5,149.4,259.8,149.7,260z"/>
				<path class="st3" d="M117.9,86c0,8.1,0,16.1,0,24.2c0,4,0,8.1,0,12.1c0,5.1-0.2,8.6-3.3,12.7c-2.2,2.9-4.6,5.6-7.2,8.1
					c-6.5,6.1-14.6,10.7-23.7,10.8c-10.7,0.1-21.1-6.1-20.6-7.7c0.3-1,5.6-0.9,22.4,2.4l-1.8-73.1l28.3-4.1L117.9,86z"/>
				<path class="st6" d="M9.1,142.3V92.2l23.6,13.6c0,0,14.7,6.5,13-13.6s0-40.1,0-40.1s1.8-48.4,37.2-30.7S126,43.2,126,43.2v48.9
					c0,0-32.4-28.9-32.4,1.8s0,41.9,0,41.9s1.2,24.8-21.8,16.5c0,0,21.8,13.6,21.8,52.5s-8.3,51.3,32.4,70.8v44.2l-50.1-25.9
					c0,0-28.9-20.6-30.1-69C44.5,176.5,54.5,163.5,9.1,142.3z"/>
			</g>
		</g>
		<g>
			<path class="st3" d="M253.1,101.5l24.2-14.7c0,0,76.1,36.6,77.3,88.5s0,44.8,0,44.8s-2.4,24.2,14.2,35.4
				c16.5,11.2,23,13.6,23,13.6l-23,11.2l-1.8,1.8l-29.5-15.3l-10-30.1l-11.8-57.8L253.1,101.5z"/>
			<polygon class="st5" points="391.9,269 391.9,317 367.8,331.2 366,330 367.2,280.3 389,269 			"/>
			<path class="st5" d="M351,311.4c0,8.3,0,16.7,0,25c0,4.2,0,8.3,0,12.5c0,5.2-0.3,8.9-4.8,13.1c-3.2,3-6.6,5.8-10.5,8.3
				c-9.4,6.3-21.2,11.1-34.3,11.1c-15.5,0.1-30.6-6.3-29.9-7.9c0.4-1.1,8.1-0.9,32.5,2.4l-2.6-75.6l41-4.3L351,311.4z"/>
			<polygon class="st4" points="253.1,336.2 280.2,319.7 289.6,326.2 287.9,346.3 270.2,345.7 			"/>
			<polygon class="st4" points="293.7,273.1 305,267.8 309.1,271.4 302,273.7 			"/>
			<path class="st6" d="M368.6,280.2c-4.5-2.2-9-4.3-13.6-6.5c-4.2-2.2-11-6.4-15.9-14.2c-5.4-8.4-5.9-16.9-6.5-28.3
				c-0.7-14.3,1.6-16.9,1.2-29.5c-0.1-2-0.6-15.2-5.3-29.5c-8-24.1-23.9-38.8-31.3-45.4C281,112.2,264,105,253.1,101.5v46
				c0,0,34.8,14.2,32.4,41.3s-4.1,63.7,21.2,82.6c0,0-6.1-2.2-11.6,0.9c-6.1,3.5-7.2,11.6-8.5,20.9c-1.6,11.6-0.6,26.6-0.6,30.1
				c0,0.8,0,1.6,0,2.4c0,0.4,0,0.8,0,1.2c0,1.5,0.2,13-6.1,16.1c-3.1,1.5-7.2-0.1-15.7-2.5c-5-1.4-11.2-4.1-11.2-4.1v36.5
				c0,0,28.3,12.5,50.7,8.3c6.6-0.3,13.3-2,18.4-6.7c6.9-6.4,7.9-17.5,8.2-19.3c0.6-4.6,0-7.3,0-27.1V325c0,0,1.2-17.1,21.2-3.5
				c20.1,13.6,15.9,8.8,15.9,8.8C367.9,313.6,368.3,296.9,368.6,280.2z"/>
		</g>
		<path class="st8" d="M131.7,143.5v75c38.5,18,77,36,115.5,54c0-25,0-50,0-75L131.7,143.5z"/>
		<path class="st9" d="M131.7,143.5c8.7-4.7,17.3-9.3,26-14c38.7,18.3,77.3,36.7,116,55l-27,13L131.7,143.5z"/>
		<polygon class="st7" points="246.7,197.5 273.7,184.5 273.7,260.5 246.7,272.5 		"/>
		<path class="st7" d="M155.7,161.5l61,29c0,12.7,0,25.3,0,38c-20.3-10.7-40.7-21.3-61-32C155.7,184.8,155.7,173.1,155.7,161.5z"/>
		<path class="st9" d="M207.7,191.5v34.8l21,10.2c0.2-11.6,0.5-23.2,0.7-34.8C222.2,198.2,214.9,194.8,207.7,191.5z"/>
		<path class="st9" d="M150.7,196.5v-18c3.3,1.3,6.7,2.7,10,4c0,6.3,0,12.7,0,19C157.3,199.8,154,198.1,150.7,196.5z"/>
		<polygon class="st9" points="156.7,203.5 193.7,222.5 193.7,227.5 156.7,208.5 		"/>
		<polygon class="st9" points="156.7,210.5 193.7,229.5 193.7,234.5 156.7,215.5 		"/>
		<polygon class="st9" points="156.7,217.5 193.7,236.5 193.7,241.5 156.7,222.5 		"/>
		<path class="st9" d="M199.7,244.5v-18c6,3,12,6,18,9c0,6,0,12,0,18C211.7,250.5,205.7,247.5,199.7,244.5z"/>
	</g>
</g>
<g id="Calque_11">
</g>
</svg>
