<?xml version="1.0" encoding="utf-8"?>
<!-- Generator: Adobe Illustrator 22.0.1, SVG Export Plug-In . SVG Version: 6.00 Build 0)  -->
<svg version="1.1" id="Calque_1" xmlns="http://www.w3.org/2000/svg" xmlns:xlink="http://www.w3.org/1999/xlink" x="0px" y="0px"
	 viewBox="0 0 395 385.7" style="enable-background:new 0 0 395 385.7;" xml:space="preserve">
<style type="text/css">
	.st0{display:none;}
	.st1{display:inline;}
	.st2{fill:none;stroke:#BFBFBF;stroke-width:6;stroke-linejoin:round;stroke-miterlimit:10;stroke-dasharray:12;}
	.st3{fill:#D39200;}
	.st4{fill:#AD7700;}
	.st5{fill:#966502;}
	.st6{fill:#F6B20B;}
	.st7{fill:#AAAAAA;}
	.st8{fill:#FFFFFF;}
	.st9{fill:#CCCCCC;}
</style>
<g id="Calque_1_1_" class="st0">
</g>
<g id="Calque_6" class="st0">
</g>
<g id="Calque_7" class="st0">
	<g class="st1">
		<path class="st2" d="M166.5,134.2c0,0-20.7-51.3-98.6-26.2S-74.6,49.5-74.6,49.5"/>
		<path class="st2" d="M158.9,155.7c-8-17.9-25.1-29.3-43.9-32.3c-13.5-1.8-26.6-1.7-39.3,1.5c-11.7,3-24,8-36,9
			c-25,2.1-48.5-5.1-70-17.9"/>
		<polygon class="st3" points="388.2,91.7 358.1,75.2 329.8,91.7 358.7,120.6 		"/>
		<path class="st3" d="M271.4,42.7l-24.2-12.4l36-20.6c4.5-2.9,10.2-5.5,17.1-6.2c26.2-2.8,44.6,24.5,45.4,25.7L271.4,42.7z"/>
		<path class="st4" d="M271.4,91.7c-7.9-4.7-15.7-9.4-23.6-14.2c-0.2-15.7-0.4-31.5-0.6-47.2l24.2,12.4V91.7z"/>
		<path class="st4" d="M247.3,259.8l24.1,15.9v43.6c-0.2,0.1-0.3,0.3-0.3,0.4c-7.8-4.7-15.5-9.3-23.3-14
			C247.6,290.5,247.4,275.2,247.3,259.8C247.3,259.9,247.3,259.8,247.3,259.8z"/>
		<path class="st5" d="M247.3,259.8l24.1,15.9h17.1l28.9-31.3l16.5-98.5l-37.2-5.9c0,0-20.1,0.6-20.1,50.7s0,44.8-20.1,61.3
			c-3.9,3.2-6.6,5.4-8.5,7C247.9,259.3,247.6,259.6,247.3,259.8z"/>
		<path class="st4" d="M279.1,85.8c0,8.1,0,16.1,0,24.2c0,4,0,8.1,0,12.1c0,5.1,0.2,8.6,3.3,12.7c2.2,2.9,4.6,5.6,7.2,8.1
			c6.5,6.1,14.6,10.7,23.7,10.8c10.7,0.1,21.1-6.1,20.6-7.7c-0.3-1-5.6-0.9-22.4,2.4l1.8-73.1L285,71L279.1,85.8z"/>
		<path class="st6" d="M387.9,142.1V92l-23.6,13.6c0,0-14.7,6.5-13-13.6c1.8-20.1,0-40.1,0-40.1s-1.8-48.4-37.2-30.7
			s-43,21.8-43,21.8v49c0,0,32.4-28.9,32.4,1.8s0,41.9,0,41.9s-1.2,24.8,21.8,16.5c0,0-21.8,13.6-21.8,52.5s8.3,51.3-32.4,70.8v44.2
			l50.1-25.9c0,0,28.9-20.6,30.1-69S342.5,163.3,387.9,142.1z"/>
		<path class="st4" d="M143.9,101.3l-24.2-14.7c0,0-76.1,36.6-77.3,88.5c-1.2,51.9,0,44.8,0,44.8s2.4,24.2-14.2,35.4
			c-16.5,11.2-23,13.6-23,13.6l23,11.2l1.8,1.8l29.5-15.3l10-30.1l11.8-57.8L143.9,101.3z"/>
		<polygon class="st5" points="5,268.8 5,316.8 29.2,331 31,329.8 29.8,280.1 8,268.8 		"/>
		<path class="st5" d="M46,311.2c0,8.3,0,16.7,0,25c0,4.2,0,8.3,0,12.5c0,5.2,0.3,8.9,4.8,13.1c3.2,3,6.6,5.8,10.5,8.3
			c9.4,6.3,21.2,11.1,34.3,11.1c15.5,0.1,30.6-6.3,29.9-7.9c-0.4-1.1-8.1-0.9-32.5,2.4l2.6-75.6l-41-4.3L46,311.2z"/>
		<polygon class="st3" points="143.9,336 116.8,319.5 107.4,326 109.1,346.1 126.8,345.5 		"/>
		<polygon class="st3" points="103.2,272.9 92,267.6 87.9,271.2 95,273.5 		"/>
		<path class="st6" d="M28.3,280c4.5-2.2,9-4.3,13.6-6.5c4.2-2.2,11-6.4,15.9-14.2c5.4-8.4,5.9-16.9,6.5-28.3
			c0.7-14.3-1.6-16.9-1.2-29.5c0.1-2,0.6-15.2,5.3-29.5c8-24.1,23.9-38.8,31.3-45.4c16.3-14.7,33.3-21.8,44.2-25.4v46
			c0,0-34.8,14.2-32.4,41.3s4.1,63.7-21.2,82.6c0,0,6.1-2.2,11.6,0.9c6.1,3.5,7.2,11.6,8.5,20.9c1.6,11.6,0.6,26.6,0.6,30.1
			c0,0.8,0,1.6,0,2.4c0,0.4,0,0.8,0,1.2c0,1.5-0.2,13,6.1,16.1c3.1,1.5,7.2-0.1,15.7-2.5c5-1.4,11.2-4.1,11.2-4.1v36.5
			c0,0-28.3,12.5-50.7,8.3c-6.6-0.3-13.3-2-18.4-6.7c-6.9-6.4-7.9-17.5-8.2-19.3c-0.6-4.6,0-7.3,0-27.1v-2.9c0,0-1.2-17.1-21.2-3.5
			s-15.9,8.8-15.9,8.8C29.1,313.4,28.7,296.7,28.3,280z"/>
		<polygon class="st7" points="191.5,187.2 193.5,201.2 290.5,234.2 		"/>
		<polygon class="st7" points="199.5,156.2 195.5,173.2 290.5,234.2 		"/>
		<polygon class="st8" points="154.5,174.2 182.5,162.2 290.5,234.2 		"/>
		<polygon class="st8" points="199.5,156.2 227.5,144.2 290.5,234.2 		"/>
	</g>
</g>
<g id="Calque_8">
</g>
<g id="Calque_11">
	<g>
		<path class="st4" d="M247.4,260.7l24.1,15.9v43.6c-0.2,0.1-0.3,0.3-0.3,0.4c-7.8-4.7-15.5-9.3-23.3-14
			C247.7,291.3,247.5,276,247.4,260.7L247.4,260.7z"/>
		<g>
			<polygon class="st3" points="388.3,92.5 358.2,76 329.9,92.5 358.8,121.4 			"/>
			<path class="st3" d="M271.5,43.6l-24.2-12.4l36-20.6c4.5-2.9,10.2-5.5,17.1-6.2C326.6,1.5,345,28.8,345.8,30L271.5,43.6z"/>
			<path class="st4" d="M271.5,92.5c-7.9-4.7-15.7-9.4-23.6-14.2c-0.2-15.7-0.4-31.5-0.6-47.2l24.2,12.4V92.5z"/>
			<path class="st5" d="M247.4,260.6l24.1,15.9h17.1l28.9-31.3l16.5-98.5l-37.2-5.9c0,0-20.1,0.6-20.1,50.7s0,44.8-20.1,61.3
				c-3.9,3.2-6.6,5.4-8.5,7C248,260.2,247.7,260.4,247.4,260.6z"/>
			<path class="st4" d="M279.2,86.6c0,8.1,0,16.1,0,24.2c0,4,0,8.1,0,12.1c0,5.1,0.2,8.6,3.3,12.7c2.2,2.9,4.6,5.6,7.2,8.1
				c6.5,6.1,14.6,10.7,23.7,10.8c10.7,0.1,21.1-6.1,20.6-7.7c-0.3-1-5.6-0.9-22.4,2.4l1.8-73.1L285.1,72L279.2,86.6z"/>
			<path class="st6" d="M388,142.9V92.8l-23.6,13.6c0,0-14.7,6.5-13-13.6c1.8-20.1,0-40.1,0-40.1S349.6,4.3,314.3,22
				s-43.1,21.8-43.1,21.8v48.9c0,0,32.4-28.9,32.4,1.8s0,41.9,0,41.9s-1.2,24.8,21.8,16.5c0,0-21.8,13.6-21.8,52.5
				s8.3,51.3-32.4,70.8v44.2l50.1-25.9c0,0,28.9-20.6,30.1-69S342.6,164.2,388,142.9z"/>
		</g>
	</g>
	<g>
		<path class="st4" d="M144,102.2l-24.2-14.7c0,0-76.1,36.6-77.3,88.5c-1.2,51.9,0,44.8,0,44.8s2.4,24.2-14.2,35.4
			c-16.5,11.2-23,13.6-23,13.6l23,11.2l1.8,1.8l29.5-15.3l10-30.1l11.8-57.8L144,102.2z"/>
		<polygon class="st5" points="5.1,269.6 5.1,317.6 29.3,331.9 31.1,330.7 29.9,280.9 8.1,269.6 		"/>
		<path class="st5" d="M46.1,312c0,8.3,0,16.7,0,25c0,4.2,0,8.3,0,12.5c0,5.2,0.3,8.9,4.8,13.1c3.2,3,6.6,5.8,10.5,8.3
			c9.4,6.3,21.2,11.1,34.3,11.1c15.5,0.1,30.6-6.3,29.9-7.9c-0.4-1.1-8.1-0.9-32.5,2.4l2.6-75.6l-41-4.3L46.1,312z"/>
		<polygon class="st3" points="144,336.9 116.9,320.4 107.5,326.9 109.2,346.9 126.9,346.3 		"/>
		<polygon class="st3" points="103.3,273.8 92.1,268.5 88,272 95.1,274.4 		"/>
		<path class="st6" d="M28.4,280.9c4.5-2.2,9-4.3,13.6-6.5c4.2-2.2,11-6.4,15.9-14.2c5.4-8.4,5.9-16.9,6.5-28.3
			c0.7-14.3-1.6-16.9-1.2-29.5c0.1-2,0.6-15.2,5.3-29.5c8-24.1,23.9-38.8,31.3-45.4c16.3-14.7,33.3-21.8,44.2-25.4v46
			c0,0-34.8,14.2-32.4,41.3c2.4,27.1,4.1,63.7-21.2,82.6c0,0,6.1-2.2,11.6,0.9c6.1,3.5,7.2,11.6,8.5,20.9
			c1.6,11.6,0.6,26.6,0.6,30.1c0,0.8,0,1.6,0,2.4c0,0.4,0,0.8,0,1.2c0,1.5-0.2,13,6.1,16.1c3.1,1.5,7.2-0.1,15.7-2.5
			c5-1.4,11.2-4.1,11.2-4.1v36.5c0,0-28.3,12.5-50.7,8.3c-6.6-0.3-13.3-2-18.4-6.7c-6.9-6.4-7.9-17.5-8.2-19.3
			c-0.6-4.6,0-7.3,0-27.1v-2.9c0,0-1.2-17.1-21.2-3.5s-15.9,8.8-15.9,8.8C29.2,314.3,28.8,297.6,28.4,280.9z"/>
	</g>
	<path class="st9" d="M183.4,192.1v34.8l-21,10.2c-0.2-11.6-0.5-23.2-0.7-34.8C168.9,198.9,176.1,195.5,183.4,192.1z"/>
	<path class="st9" d="M240.4,197.1v-18c-3.3,1.3-6.7,2.7-10,4c0,6.3,0,12.7,0,19C233.7,200.4,237.1,198.8,240.4,197.1z"/>
	<g>
		<path class="st4" d="M248.4,259.7l24.1,15.9v43.6c-0.2,0.1-0.3,0.3-0.3,0.4c-7.8-4.7-15.5-9.3-23.3-14
			C248.7,290.3,248.5,275,248.4,259.7L248.4,259.7z"/>
		<g>
			<polygon class="st3" points="389.3,91.5 359.2,75 330.9,91.5 359.8,120.4 			"/>
			<path class="st3" d="M272.5,42.6l-24.2-12.4l36-20.6c4.5-2.9,10.2-5.5,17.1-6.2C327.6,0.5,346,27.8,346.8,29L272.5,42.6z"/>
			<path class="st4" d="M272.5,91.5c-7.9-4.7-15.7-9.4-23.6-14.2c-0.2-15.7-0.4-31.5-0.6-47.2l24.2,12.4V91.5z"/>
			<path class="st5" d="M248.4,259.6l24.1,15.9h17.1l28.9-31.3l16.5-98.5l-37.2-5.9c0,0-20.1,0.6-20.1,50.7s0,44.8-20.1,61.3
				c-3.9,3.2-6.6,5.4-8.5,7C249,259.2,248.7,259.4,248.4,259.6z"/>
			<path class="st4" d="M280.2,85.6c0,8.1,0,16.1,0,24.2c0,4,0,8.1,0,12.1c0,5.1,0.2,8.6,3.3,12.7c2.2,2.9,4.6,5.6,7.2,8.1
				c6.5,6.1,14.6,10.7,23.7,10.8c10.7,0.1,21.1-6.1,20.6-7.7c-0.3-1-5.6-0.9-22.4,2.4l1.8-73.1L286.1,71L280.2,85.6z"/>
			<path class="st6" d="M389,141.9V91.8l-23.6,13.6c0,0-14.7,6.5-13-13.6c1.8-20.1,0-40.1,0-40.1S350.6,3.3,315.3,21
				s-43.1,21.8-43.1,21.8v48.9c0,0,32.4-28.9,32.4,1.8s0,41.9,0,41.9s-1.2,24.8,21.8,16.5c0,0-21.8,13.6-21.8,52.5
				s8.3,51.3-32.4,70.8v44.2l50.1-25.9c0,0,28.9-20.6,30.1-69S343.6,163.2,389,141.9z"/>
		</g>
	</g>
	<g>
		<path class="st4" d="M145,101.2l-24.2-14.7c0,0-76.1,36.6-77.3,88.5c-1.2,51.9,0,44.8,0,44.8s2.4,24.2-14.2,35.4
			c-16.5,11.2-23,13.6-23,13.6l23,11.2l1.8,1.8l29.5-15.3l10-30.1l11.8-57.8L145,101.2z"/>
		<polygon class="st5" points="6.1,268.6 6.1,316.6 30.3,330.9 32.1,329.7 30.9,279.9 9.1,268.6 		"/>
		<path class="st5" d="M47.1,311c0,8.3,0,16.7,0,25c0,4.2,0,8.3,0,12.5c0,5.2,0.3,8.9,4.8,13.1c3.2,3,6.6,5.8,10.5,8.3
			c9.4,6.3,21.2,11.1,34.3,11.1c15.5,0.1,30.6-6.3,29.9-7.9c-0.4-1.1-8.1-0.9-32.5,2.4l2.6-75.6l-41-4.3L47.1,311z"/>
		<polygon class="st3" points="145,335.9 117.9,319.4 108.5,325.9 110.2,345.9 127.9,345.3 		"/>
		<polygon class="st3" points="104.3,272.8 93.1,267.5 89,271 96.1,273.4 		"/>
		<path class="st6" d="M29.4,279.9c4.5-2.2,9-4.3,13.6-6.5c4.2-2.2,11-6.4,15.9-14.2c5.4-8.4,5.9-16.9,6.5-28.3
			c0.7-14.3-1.6-16.9-1.2-29.5c0.1-2,0.6-15.2,5.3-29.5c8-24.1,23.9-38.8,31.3-45.4c16.3-14.7,33.3-21.8,44.2-25.4v46
			c0,0-34.8,14.2-32.4,41.3c2.4,27.1,4.1,63.7-21.2,82.6c0,0,6.1-2.2,11.6,0.9c6.1,3.5,7.2,11.6,8.5,20.9
			c1.6,11.6,0.6,26.6,0.6,30.1c0,0.8,0,1.6,0,2.4c0,0.4,0,0.8,0,1.2c0,1.5-0.2,13,6.1,16.1c3.1,1.5,7.2-0.1,15.7-2.5
			c5-1.4,11.2-4.1,11.2-4.1v36.5c0,0-28.3,12.5-50.7,8.3c-6.6-0.3-13.3-2-18.4-6.7c-6.9-6.4-7.9-17.5-8.2-19.3
			c-0.6-4.6,0-7.3,0-27.1v-2.9c0,0-1.2-17.1-21.2-3.5s-15.9,8.8-15.9,8.8C30.2,313.3,29.8,296.6,29.4,279.9z"/>
	</g>
	<g>
		<polygon class="st7" points="152.4,196.1 125.4,183.1 125.4,259.1 152.4,271.1 		"/>
		<g>
			<path class="st9" d="M266.4,143.1c-8.7-4.7-17.3-9.3-26-14c-38.7,18.3-77.3,36.7-116,55l27,13L266.4,143.1z"/>
			<path class="st7" d="M242.4,161.1l-61,29c0,12.7,0,25.3,0,38c20.3-10.7,40.7-21.3,61-32C242.4,184.4,242.4,172.8,242.4,161.1z"/>
			<polygon class="st9" points="241.4,203.1 204.4,222.1 204.4,227.1 241.4,208.1 			"/>
			<polygon class="st9" points="241.4,210.1 204.4,229.1 204.4,234.1 241.4,215.1 			"/>
			<polygon class="st9" points="241.4,217.1 204.4,236.1 204.4,241.1 241.4,222.1 			"/>
			<path class="st9" d="M198.4,244.1v-18c-6,3-12,6-18,9c0,6,0,12,0,18C186.4,250.1,192.4,247.1,198.4,244.1z"/>
			<path class="st8" d="M267.4,142.1v75c-38.5,18-77,36-115.5,54c0-25,0-50,0-75L267.4,142.1z"/>
			<path class="st9" d="M267.4,142.1c-8.7-4.7-17.3-9.3-26-14c-38.7,18.3-77.3,36.7-116,55l27,13L267.4,142.1z"/>
			<path class="st7" d="M243.4,160.1l-61,29c0,12.7,0,25.3,0,38c20.3-10.7,40.7-21.3,61-32C243.4,183.4,243.4,171.8,243.4,160.1z"/>
			<path class="st9" d="M191.4,190.1v34.8l-21,10.2c-0.2-11.6-0.5-23.2-0.7-34.8C176.9,196.9,184.1,193.5,191.4,190.1z"/>
			<path class="st9" d="M248.4,195.1v-18c-3.3,1.3-6.7,2.7-10,4c0,6.3,0,12.7,0,19C241.7,198.4,245.1,196.8,248.4,195.1z"/>
			<polygon class="st9" points="242.4,202.1 205.4,221.1 205.4,226.1 242.4,207.1 			"/>
			<polygon class="st9" points="242.4,209.1 205.4,228.1 205.4,233.1 242.4,214.1 			"/>
			<polygon class="st9" points="242.4,216.1 205.4,235.1 205.4,240.1 242.4,221.1 			"/>
			<path class="st9" d="M199.4,243.1v-18c-6,3-12,6-18,9c0,6,0,12,0,18C187.4,249.1,193.4,246.1,199.4,243.1z"/>
		</g>
	</g>
</g>
</svg>
