<?xml version="1.0"?>
<svg xmlns="http://www.w3.org/2000/svg" xmlns:xlink="http://www.w3.org/1999/xlink" xmlns:svgjs="http://svgjs.com/svgjs" version="1.1" width="512" height="512" x="0" y="0" viewBox="0 0 512 512" style="enable-background:new 0 0 512 512" xml:space="preserve" class=""><g><g xmlns="http://www.w3.org/2000/svg"><g><path d="m497.365 296.208-53.854-150.762c-12.908-36.135-47.137-60.255-85.508-60.255h-203.957c-38.371 0-72.6 24.12-85.508 60.255l-53.854 150.762c-13.516 37.836-7.754 79.884 15.441 112.69 16.812 23.778 52.047 23.902 69.025.242l53.487-74.536c6.633-9.243 17.312-14.724 28.689-14.724h149.398c11.377 0 22.056 5.481 28.689 14.724l53.487 74.536c16.978 23.66 52.213 23.537 69.025-.242 23.194-32.806 28.956-74.854 15.44-112.69z" fill="#ffffff" data-original="#407093" style="" class=""/></g><g><g><path d="m497.365 296.208-53.854-150.762c-12.908-36.135-47.137-60.255-85.508-60.255h-61.677c29.207 7.414 53.507 28.893 63.969 58.183l54.537 152.675c12.258 34.317 8.846 72.05-8.873 103.421l6.939 9.669c16.978 23.66 52.213 23.537 69.025-.242 23.196-32.805 28.958-74.853 15.442-112.689z" fill="#ededed" data-original="#2b4d66" style="" class=""/></g></g><g><path d="m179.743 148.018h-19.216c-1.114 0-2.018-.903-2.018-2.018v-19.216c0-3.343-2.71-6.053-6.053-6.053h-20.714c-3.343 0-6.053 2.71-6.053 6.053v19.216c0 1.114-.903 2.018-2.018 2.018h-19.216c-3.343 0-6.053 2.71-6.053 6.053v20.714c0 3.343 2.71 6.053 6.053 6.053h19.216c1.114 0 2.018.903 2.018 2.018v19.216c0 3.343 2.71 6.053 6.053 6.053h20.714c3.343 0 6.053-2.71 6.053-6.053v-19.216c0-1.114.903-2.018 2.018-2.018h19.216c3.343 0 6.053-2.71 6.053-6.053v-20.714c0-3.343-2.71-6.053-6.053-6.053z" fill="#dae7ef" data-original="#dae7ef" style="" class=""/></g><g><g><path d="m179.743 148.018h-7.102v13.612c0 3.343-2.71 6.053-6.053 6.053h-14.171c-3.9 0-7.062 3.162-7.062 7.062v14.171c0 3.343-2.71 6.053-6.053 6.053h-13.612v7.102c0 3.343 2.71 6.053 6.053 6.053h20.714c3.343 0 6.053-2.71 6.053-6.053v-19.216c0-1.114.903-2.018 2.018-2.018h19.216c3.343 0 6.053-2.71 6.053-6.053v-20.714c-.001-3.342-2.711-6.052-6.054-6.052z" fill="#c1d5e4" data-original="#c1d5e4" style="" class=""/></g></g><g><circle cx="312.174" cy="253.18" fill="#dae7ef" r="36.72" data-original="#dae7ef" style="" class=""/></g><g><circle cx="199.826" cy="253.18" fill="#dae7ef" r="36.72" data-original="#dae7ef" style="" class=""/></g><g><path d="m321.244 217.591c.737 2.901 1.131 5.939 1.131 9.069 0 20.28-16.44 36.72-36.72 36.72-3.13 0-6.168-.394-9.069-1.131 4.038 15.893 18.439 27.651 35.589 27.651 20.28 0 36.72-16.44 36.72-36.72 0-17.15-11.758-31.551-27.651-35.589z" fill="#c1d5e4" data-original="#c1d5e4" style="" class=""/></g><g><path d="m208.895 217.591c.737 2.901 1.131 5.939 1.131 9.069 0 20.28-16.44 36.72-36.72 36.72-3.13 0-6.168-.394-9.069-1.131 4.038 15.893 18.439 27.651 35.589 27.651 20.28 0 36.72-16.44 36.72-36.72 0-17.15-11.757-31.551-27.651-35.589z" fill="#c1d5e4" data-original="#c1d5e4" style="" class=""/></g><circle cx="256.185" cy="155.485" fill="#dae7ef" r="21.836" data-original="#dae7ef" style="" class=""/><path d="m264.761 135.4c1.126 2.633 1.751 5.531 1.751 8.576 0 12.06-9.776 21.836-21.836 21.836-3.045 0-5.943-.625-8.576-1.751 3.333 7.796 11.071 13.26 20.085 13.26 12.06 0 21.836-9.776 21.836-21.836 0-9.015-5.464-16.752-13.26-20.085z" fill="#c1d5e4" data-original="#c1d5e4" style="" class=""/><path d="m504.391 293.699-10.125-28.345c-1.386-3.88-5.657-5.901-9.535-4.516-3.88 1.386-5.901 5.655-4.515 9.535l10.125 28.345c12.683 35.507 7.26 75.086-14.508 105.874-6.602 9.338-16.948 14.717-28.385 14.757-11.448.035-21.821-5.265-28.488-14.558l-53.487-74.536c-8.014-11.168-21.004-17.835-34.749-17.835h-149.398c-13.746 0-26.737 6.667-34.75 17.835l-53.487 74.536c-6.642 9.257-16.973 14.558-28.359 14.558-.043 0-.085 0-.128 0-11.437-.04-21.783-5.419-28.385-14.757-1.286-1.819-2.534-3.696-3.71-5.58-2.182-3.496-6.784-4.562-10.278-2.381-3.496 2.181-4.561 6.782-2.381 10.278 1.327 2.126 2.734 4.245 4.186 6.297 9.424 13.329 24.192 21.006 40.515 21.063h.184c16.251 0 30.997-7.567 40.478-20.779l53.487-74.536c5.218-7.272 13.677-11.613 22.628-11.613h149.398c8.95 0 17.409 4.341 22.627 11.613l53.487 74.536c9.482 13.213 24.227 20.78 40.478 20.779h.185c16.324-.057 31.091-7.734 40.515-21.063 24.57-34.753 30.692-79.428 16.375-119.507z" fill="#214d62" data-original="#000000" style="" class=""/><path d="m19.4 369.48c-6.67-23.391-5.872-47.86 2.309-70.762l53.854-150.761c11.817-33.08 43.356-55.305 78.483-55.305h203.958c35.126 0 66.666 22.225 78.484 55.305l32.35 90.563c1.386 3.881 5.654 5.902 9.535 4.516 3.88-1.386 5.901-5.655 4.515-9.535l-32.35-90.563c-13.932-39.001-51.119-65.206-92.533-65.206h-203.96c-41.416 0-78.601 26.204-92.532 65.206l-53.854 150.761c-9.235 25.851-10.136 53.471-2.608 79.873 2.573 9.384 17.128 5.147 14.349-4.092z" fill="#214d62" data-original="#000000" style="" class=""/><path d="m131.742 215.586h20.714c7.451 0 13.514-6.062 13.514-13.514v-13.773h13.774c7.451 0 13.514-6.062 13.514-13.514v-20.714c0-7.451-6.062-13.514-13.514-13.514h-13.774v-13.773c0-7.451-6.062-13.514-13.514-13.514h-20.714c-7.451 0-13.514 6.062-13.514 13.514v13.773h-13.773c-7.451 0-13.514 6.062-13.514 13.514v20.714c0 7.451 6.062 13.514 13.514 13.514h13.773v13.773c0 7.452 6.062 13.514 13.514 13.514zm-25.88-42.207v-17.901h17.809c5.226 0 9.478-4.252 9.478-9.478v-17.809h17.901v17.809c0 5.226 4.252 9.478 9.478 9.478h17.81v17.901h-17.81c-5.226 0-9.478 4.252-9.478 9.478v17.809h-17.901v-17.809c0-5.226-4.252-9.478-9.478-9.478z" fill="#214d62" data-original="#000000" style="" class=""/><path d="m369.531 125.033c-6.77 0-12.258 5.488-12.258 12.258s5.488 12.258 12.258 12.258 12.258-5.488 12.258-12.258-5.488-12.258-12.258-12.258z" fill="#214d62" data-original="#000000" style="" class=""/><path d="m369.531 204.029c6.77 0 12.258-5.488 12.258-12.258s-5.488-12.258-12.258-12.258-12.258 5.488-12.258 12.258 5.488 12.258 12.258 12.258z" fill="#214d62" data-original="#000000" style="" class=""/><circle cx="396.771" cy="164.531" r="12.258" fill="#214d62" data-original="#000000" style="" class=""/><path d="m354.549 164.531c0-6.77-5.488-12.258-12.258-12.258s-12.258 5.488-12.258 12.258 5.488 12.258 12.258 12.258 12.258-5.488 12.258-12.258z" fill="#214d62" data-original="#000000" style="" class=""/><path d="m312.174 297.36c24.361 0 44.18-19.819 44.18-44.18s-19.819-44.18-44.18-44.18-44.18 19.819-44.18 44.18 19.819 44.18 44.18 44.18zm0-73.44c16.134 0 29.26 13.126 29.26 29.26s-13.126 29.26-29.26 29.26-29.26-13.126-29.26-29.26 13.126-29.26 29.26-29.26z" fill="#214d62" data-original="#000000" style="" class=""/><path d="m199.826 282.44c-4.391 0-8.608-.946-12.536-2.812-3.719-1.766-8.17-.184-9.939 3.537-1.768 3.722-.185 8.172 3.538 9.939 5.943 2.823 12.315 4.255 18.938 4.255 24.361 0 44.18-19.819 44.18-44.18s-19.82-44.181-44.18-44.181-44.18 19.82-44.18 44.181c0 2.181.161 4.375.479 6.519.603 4.076 4.407 6.888 8.472 6.287 4.076-.604 6.891-4.397 6.287-8.472-.211-1.424-.318-2.882-.318-4.334 0-16.134 13.126-29.261 29.26-29.261s29.26 13.126 29.26 29.261-13.127 29.261-29.261 29.261z" fill="#214d62" data-original="#000000" style="" class=""/><g><path d="m256.185 184.821c-16.176 0-29.336-13.16-29.336-29.336s13.16-29.336 29.336-29.336 29.336 13.16 29.336 29.336-13.161 29.336-29.336 29.336zm0-43.672c-7.905 0-14.336 6.431-14.336 14.336s6.431 14.336 14.336 14.336 14.336-6.431 14.336-14.336-6.431-14.336-14.336-14.336z" fill="#214d62" data-original="#000000" style="" class=""/></g></g></g></svg>
