<?xml version="1.0" encoding="utf-8"?>
<!-- Generator: Adobe Illustrator 22.0.1, SVG Export Plug-In . SVG Version: 6.00 Build 0)  -->
<svg version="1.1" id="Calque_1" xmlns="http://www.w3.org/2000/svg" xmlns:xlink="http://www.w3.org/1999/xlink" x="0px" y="0px"
	 viewBox="0 0 314 219.1" style="enable-background:new 0 0 314 219.1;" xml:space="preserve">
<style type="text/css">
	.st0{fill:none;stroke:#214D62;stroke-width:8;stroke-miterlimit:10;}
	.st1{fill:#214D62;}
	.st2{fill:none;stroke:#F4B01B;stroke-width:8;stroke-miterlimit:10;}
</style>
<g>
	<path class="st0" d="M20.6,98.3c10-0.8,18,7,24.4,14.2s4.7,22.4,5.4,31.3c1.1,14.6,3.8,29,6.5,43.4c1.3,7.1,2.6,14.3,4,21.4"/>
	<line class="st0" x1="124.5" y1="97.6" x2="124.5" y2="123"/>
	<line class="st0" x1="137.3" y1="110.7" x2="111.8" y2="110.7"/>
	<path class="st0" d="M294,101.1c-7.1-29.1-17-55.5-25.7-66.9L220,7.8l-19.3,14.1H113L93.6,7.8L45.3,34.2
		C36.6,45.6,26.8,72,19.7,101.1c-6.6,26.9-10.8,56.1-9.5,78.1c2.6,45.7,36.9,36,36.9,36c3.3-0.7,8.3-2.3,13.6-5.7
		c1.3-0.8,5.7-3.8,9.3-8.2c7-8.4,8.2-17.9,8.7-22.1c3.5-31.6,38.7-32.5,38.7-32.5h78.9c0,0,35.2,0.9,38.7,32.5
		c0.5,4.3,1.7,13.7,8.7,22.1c3.7,4.4,8,7.3,9.3,8.2c5.3,3.4,10.3,5,13.6,5.7c0,0,34.3,9.7,36.9-36C304.7,157.2,300.5,128,294,101.1z
		 M96.7,89.1c-12.1,0-22-9.8-22-22s9.8-22,22-22s22,9.8,22,22S108.9,89.1,96.7,89.1z"/>
	<path class="st0" d="M292.4,98.3c-10-0.8-18,7-24.4,14.2s-4.7,22.4-5.4,31.3c-1.1,14.6-3.8,29-6.5,43.4c-1.3,7.1-2.6,14.3-4,21.4"
		/>
	<circle class="st0" cx="202.5" cy="103.7" r="15.6"/>
</g>
<g>
	<g>
		<circle class="st1" cx="226.9" cy="42.2" r="5.9"/>
	</g>
	<g>
		<circle class="st1" cx="226.9" cy="65.9" r="5.9"/>
	</g>
	<g>
		<circle class="st1" cx="213.9" cy="54.1" r="5.9"/>
	</g>
	<g>
		<circle class="st1" cx="239.9" cy="54.1" r="5.9"/>
	</g>
</g>
<g>
	<path class="st2" d="M876.6,197.5c0,0-0.9,7.5-4.9,14.6c-7.3,13.3-33.4,32.1-48.7,24.3c-8-4.1-7.4-12.6-19.5-19.5
		c-4.3-2.5-19.7-2.5-24.1,0c-12.1,6.9-11.4,15.4-19.5,19.5c-15.3,7.7-41.4-11-48.7-24.3c-3.9-7.2-4.9-14.6-4.9-14.6
		c-0.1-0.9-0.6-4.7,0-9.7c1.2-10.8,6.2-19.4,9.7-24.3c9.7-16.2,19.5-32.5,29.2-48.7c0,0,13.1-17.5,43.5-19.3c0.7,0,1.3,0,2-0.1h1.1
		c0.7,0,1.4,0,2,0.1c30.4,1.9,43.5,19.3,43.5,19.3c9.7,16.2,19.5,32.5,29.2,48.7c3.5,5,8.5,13.6,9.7,24.3
		C877.2,192.8,876.8,196.7,876.6,197.5z"/>
	<ellipse class="st2" cx="687" cy="101.6" rx="29.2" ry="35.5"/>
	<ellipse class="st2" cx="901.3" cy="101.6" rx="29.2" ry="35.5"/>
	<ellipse class="st2" cx="755.2" cy="38.3" rx="29.2" ry="35.5"/>
	<ellipse class="st2" cx="833.1" cy="38.3" rx="29.2" ry="35.5"/>
</g>
<path class="st2" d="M1459.9,215.1h-67.1c-27.5,0-27.5-27.5-27.5-27.5V70.1c0,0,0-27.5,27.5-27.5h50.4
	c-28.6,16.3-47.9,47.1-47.9,82.5C1395.3,166.9,1422.3,202.4,1459.9,215.1z"/>
<path class="st2" d="M1660.2,70.1v117.4c0,0,0,27.5-27.5,27.5h-112.1c37.6-12.6,64.6-48.1,64.6-90c0-35.3-19.3-66.2-47.9-82.5h95.4
	C1660.2,42.6,1660.2,70.1,1660.2,70.1z"/>
<path class="st2" d="M1427.1,43.5l13.2-33.4c0,0,50-30,100,0l10.4,32"/>
<ellipse class="st2" cx="1622.7" cy="67.6" rx="17.5" ry="7.5"/>
<path class="st2" d="M1465.3,141.1c2.9-2.9,5.9-5.9,8.8-8.8"/>
<line class="st2" x1="1480.3" y1="144.5" x2="1498.5" y2="126.3"/>
<path class="st2" d="M1478.3,128.1c6.5-6.5,13-13,19.5-19.5"/>
<path class="st2" d="M1501.1,123.7c2.9-2.9,5.9-5.9,8.8-8.8"/>
<circle class="st2" cx="1490.3" cy="125.1" r="50"/>
<circle class="st2" cx="1490.3" cy="125.1" r="95"/>
<line class="st2" x1="1365.3" y1="88.1" x2="1380.3" y2="88.1"/>
<line class="st2" x1="1645.2" y1="88.1" x2="1660.2" y2="88.1"/>
<line class="st2" x1="1645.2" y1="168" x2="1660.2" y2="168"/>
<line class="st2" x1="1365.3" y1="168" x2="1380.3" y2="168"/>
<g>
	<rect x="2082.8" y="32.3" class="st2" width="275.2" height="176.9"/>
	<line class="st2" x1="2082.8" y1="56.8" x2="2357.9" y2="56.8"/>
	<line class="st2" x1="2107.3" y1="56.8" x2="2107.3" y2="32.4"/>
	<line class="st2" x1="2130.3" y1="56.8" x2="2130.3" y2="32.4"/>
	<line class="st2" x1="2153.2" y1="56.8" x2="2153.2" y2="32.4"/>
	<line class="st2" x1="2176.1" y1="56.8" x2="2176.1" y2="32.4"/>
	<line class="st2" x1="2199" y1="56.8" x2="2199" y2="32.4"/>
	<polygon class="st2" points="2182.7,83.1 2182.7,155.1 2254.7,122.4 	"/>
	<line class="st2" x1="2082.8" y1="181.3" x2="2357.9" y2="181.3"/>
	<line class="st2" x1="2222" y1="56.8" x2="2222" y2="32.4"/>
	<line class="st2" x1="2244.9" y1="56.8" x2="2244.9" y2="32.4"/>
	<line class="st2" x1="2267.8" y1="56.8" x2="2267.8" y2="32.4"/>
	<line class="st2" x1="2290.8" y1="56.8" x2="2290.8" y2="32.4"/>
	<line class="st2" x1="2313.7" y1="56.8" x2="2313.7" y2="32.4"/>
	<line class="st2" x1="2336.6" y1="56.8" x2="2336.6" y2="32.4"/>
	<line class="st2" x1="2107.3" y1="209.2" x2="2107.3" y2="183"/>
	<line class="st2" x1="2130.3" y1="209.2" x2="2130.3" y2="183"/>
	<line class="st2" x1="2153.2" y1="209.2" x2="2153.2" y2="183"/>
	<line class="st2" x1="2176.1" y1="209.2" x2="2176.1" y2="183"/>
	<line class="st2" x1="2199" y1="209.2" x2="2199" y2="183"/>
	<line class="st2" x1="2222" y1="209.2" x2="2222" y2="183"/>
	<line class="st2" x1="2244.9" y1="209.2" x2="2244.9" y2="183"/>
	<line class="st2" x1="2267.8" y1="209.2" x2="2267.8" y2="183"/>
	<line class="st2" x1="2290.8" y1="209.2" x2="2290.8" y2="183"/>
	<line class="st2" x1="2313.7" y1="209.2" x2="2313.7" y2="183"/>
	<line class="st2" x1="2336.6" y1="209.2" x2="2336.6" y2="183"/>
</g>
</svg>
