<?xml version="1.0" encoding="utf-8"?>
<!-- Generator: Adobe Illustrator 22.0.1, SVG Export Plug-In . SVG Version: 6.00 Build 0)  -->
<svg version="1.1" id="Calque_1" xmlns="http://www.w3.org/2000/svg" xmlns:xlink="http://www.w3.org/1999/xlink" x="0px" y="0px"
	 viewBox="0 0 294.5 248.4" style="enable-background:new 0 0 294.5 248.4;" xml:space="preserve">
<style type="text/css">
	.st0{fill:none;stroke:#F4B01B;stroke-width:8;stroke-miterlimit:10;}
	.st1{fill:#F4B01B;}
	.st2{fill:none;stroke:#214D62;stroke-width:8;stroke-miterlimit:10;}
</style>
<g>
	<path class="st0" d="M20.5-250.4c10-0.8,18,7,24.4,14.2s4.7,22.4,5.4,31.3c1.1,14.6,3.8,29,6.5,43.4c1.3,7.1,2.6,14.3,4,21.4"/>
	<line class="st0" x1="124.5" y1="-251.2" x2="124.5" y2="-225.7"/>
	<line class="st0" x1="137.2" y1="-238" x2="111.7" y2="-238"/>
	<path class="st0" d="M293.9-247.7c-7.1-29.1-17-55.5-25.7-66.9L219.9-341l-19.3,14.1h-87.7L93.6-341l-48.3,26.4
		c-8.7,11.4-18.5,37.8-25.6,66.9c-6.6,26.9-10.8,56.1-9.5,78.1c2.6,45.7,36.9,36,36.9,36c3.3-0.7,8.3-2.3,13.6-5.7
		c1.3-0.8,5.7-3.8,9.3-8.2c7-8.4,8.2-17.9,8.7-22.1c3.5-31.6,38.7-32.5,38.7-32.5h78.9c0,0,35.2,0.9,38.7,32.5
		c0.5,4.3,1.7,13.7,8.7,22.1c3.7,4.4,8,7.3,9.3,8.2c5.3,3.4,10.3,5,13.6,5.7c0,0,34.3,9.7,36.9-36
		C304.7-191.5,300.5-220.8,293.9-247.7z M96.7-259.6c-12.1,0-22-9.8-22-22s9.8-22,22-22s22,9.8,22,22S108.8-259.6,96.7-259.6z"/>
	<path class="st0" d="M292.4-250.4c-10-0.8-18,7-24.4,14.2s-4.7,22.4-5.4,31.3c-1.1,14.6-3.8,29-6.5,43.4c-1.3,7.1-2.6,14.3-4,21.4"
		/>
	<circle class="st0" cx="202.5" cy="-245" r="15.6"/>
</g>
<g>
	<g>
		<circle class="st1" cx="226.9" cy="-306.5" r="5.9"/>
	</g>
	<g>
		<circle class="st1" cx="226.9" cy="-282.9" r="5.9"/>
	</g>
	<g>
		<circle class="st1" cx="213.9" cy="-294.7" r="5.9"/>
	</g>
	<g>
		<circle class="st1" cx="239.9" cy="-294.7" r="5.9"/>
	</g>
</g>
<g>
	<path class="st2" d="M228.6,201.8c0,0-0.9,7.5-4.9,14.6c-7.3,13.3-33.4,32.1-48.7,24.3c-8-4.1-7.4-12.6-19.5-19.5
		c-4.3-2.5-19.7-2.5-24.1,0c-12.1,6.9-11.4,15.4-19.5,19.5c-15.3,7.7-41.4-11-48.7-24.3c-3.9-7.2-4.9-14.6-4.9-14.6
		c-0.1-0.9-0.6-4.7,0-9.7c1.2-10.8,6.2-19.4,9.7-24.3c9.7-16.2,19.5-32.5,29.2-48.7c0,0,13.1-17.5,43.5-19.3c0.7,0,1.3,0,2-0.1h1.1
		c0.7,0,1.4,0,2,0.1c30.4,1.9,43.5,19.3,43.5,19.3c9.7,16.2,19.5,32.5,29.2,48.7c3.5,5,8.5,13.6,9.7,24.3
		C229.2,197.1,228.7,200.9,228.6,201.8z"/>
	<ellipse class="st2" cx="39" cy="105.8" rx="29.2" ry="35.5"/>
	<ellipse class="st2" cx="253.2" cy="105.8" rx="29.2" ry="35.5"/>
	<ellipse class="st2" cx="107.1" cy="42.5" rx="29.2" ry="35.5"/>
	<ellipse class="st2" cx="185" cy="42.5" rx="29.2" ry="35.5"/>
</g>
<path class="st0" d="M1448.9,244.3h-67.1c-27.5,0-27.5-27.5-27.5-27.5V99.4c0,0,0-27.5,27.5-27.5h50.4
	c-28.6,16.3-47.9,47.1-47.9,82.5C1384.3,196.2,1411.3,231.7,1448.9,244.3z"/>
<path class="st0" d="M1649.1,99.4v117.4c0,0,0,27.5-27.5,27.5h-112.1c37.6-12.6,64.6-48.1,64.6-90c0-35.3-19.3-66.2-47.9-82.5h95.4
	C1649.1,71.9,1649.1,99.4,1649.1,99.4z"/>
<path class="st0" d="M1416,72.8l13.2-33.4c0,0,50-30,100,0l10.4,32"/>
<ellipse class="st0" cx="1611.7" cy="96.9" rx="17.5" ry="7.5"/>
<path class="st0" d="M1454.2,170.4c2.9-2.9,5.9-5.9,8.8-8.8"/>
<line class="st0" x1="1469.2" y1="173.8" x2="1487.4" y2="155.6"/>
<path class="st0" d="M1467.2,157.4c6.5-6.5,13-13,19.5-19.5"/>
<path class="st0" d="M1490,153c2.9-2.9,5.9-5.9,8.8-8.8"/>
<circle class="st0" cx="1479.2" cy="154.4" r="50"/>
<circle class="st0" cx="1479.2" cy="154.4" r="95"/>
<line class="st0" x1="1354.3" y1="117.3" x2="1369.3" y2="117.3"/>
<line class="st0" x1="1634.1" y1="117.3" x2="1649.1" y2="117.3"/>
<line class="st0" x1="1634.1" y1="197.3" x2="1649.1" y2="197.3"/>
<line class="st0" x1="1354.3" y1="197.3" x2="1369.3" y2="197.3"/>
<g>
	<rect x="2071.7" y="61.5" class="st0" width="275.2" height="176.9"/>
	<line class="st0" x1="2071.7" y1="86.1" x2="2346.9" y2="86.1"/>
	<line class="st0" x1="2096.3" y1="86.1" x2="2096.3" y2="61.6"/>
	<line class="st0" x1="2119.2" y1="86.1" x2="2119.2" y2="61.6"/>
	<line class="st0" x1="2142.1" y1="86.1" x2="2142.1" y2="61.6"/>
	<line class="st0" x1="2165.1" y1="86.1" x2="2165.1" y2="61.6"/>
	<line class="st0" x1="2188" y1="86.1" x2="2188" y2="61.6"/>
	<polygon class="st0" points="2171.6,112.3 2171.6,184.4 2243.7,151.6 	"/>
	<line class="st0" x1="2071.7" y1="210.6" x2="2346.9" y2="210.6"/>
	<line class="st0" x1="2210.9" y1="86.1" x2="2210.9" y2="61.6"/>
	<line class="st0" x1="2233.9" y1="86.1" x2="2233.9" y2="61.6"/>
	<line class="st0" x1="2256.8" y1="86.1" x2="2256.8" y2="61.6"/>
	<line class="st0" x1="2279.7" y1="86.1" x2="2279.7" y2="61.6"/>
	<line class="st0" x1="2302.7" y1="86.1" x2="2302.7" y2="61.6"/>
	<line class="st0" x1="2325.6" y1="86.1" x2="2325.6" y2="61.6"/>
	<line class="st0" x1="2096.3" y1="238.4" x2="2096.3" y2="212.2"/>
	<line class="st0" x1="2119.2" y1="238.4" x2="2119.2" y2="212.2"/>
	<line class="st0" x1="2142.1" y1="238.4" x2="2142.1" y2="212.2"/>
	<line class="st0" x1="2165.1" y1="238.4" x2="2165.1" y2="212.2"/>
	<line class="st0" x1="2188" y1="238.4" x2="2188" y2="212.2"/>
	<line class="st0" x1="2210.9" y1="238.4" x2="2210.9" y2="212.2"/>
	<line class="st0" x1="2233.9" y1="238.4" x2="2233.9" y2="212.2"/>
	<line class="st0" x1="2256.8" y1="238.4" x2="2256.8" y2="212.2"/>
	<line class="st0" x1="2279.7" y1="238.4" x2="2279.7" y2="212.2"/>
	<line class="st0" x1="2302.7" y1="238.4" x2="2302.7" y2="212.2"/>
	<line class="st0" x1="2325.6" y1="238.4" x2="2325.6" y2="212.2"/>
</g>
</svg>
