<?xml version="1.0"?>
<svg xmlns="http://www.w3.org/2000/svg" xmlns:xlink="http://www.w3.org/1999/xlink" xmlns:svgjs="http://svgjs.com/svgjs" version="1.1" width="512" height="512" x="0" y="0" viewBox="0 0 512.002 512.002" style="enable-background:new 0 0 512 512" xml:space="preserve" class=""><g><g xmlns="http://www.w3.org/2000/svg"><path clip-rule="evenodd" d="m256.001 356.001c77.109 0 140-62.891 140-140-7.909-185.744-272.12-185.689-280 .001 0 77.108 62.891 139.999 140 139.999z" fill="#ffffff" fill-rule="evenodd" data-original="#e2c4ff" style="" class=""/><g fill="#020288"><path d="m476.001 40h-30v-30c0-5.523-4.477-10-10-10h-360c-27.57 0-50 22.43-50 50v412.002c0 27.57 22.43 50 50 50h400c5.523 0 10-4.477 10-10v-452.002c0-5.523-4.477-10-10-10zm-50 372.002h-340v-392.002h340zm-380-362.002c0-13.037 8.36-24.159 20-28.286v391.293c-7.385 1.505-14.184 4.643-20 9.018zm30 442.002c-39.809-1.653-39.778-58.362 0-60h350v20h-350c-13.268.528-13.258 19.477 0 20h350v20zm390 0h-20v-432.002h20z" fill="#214d62" data-original="#020288" style="" class=""/><path d="m211.792 237.371c-38.601 10.46-31.732 66.138 8.209 66.992h72c39.968-.864 46.786-56.547 8.21-66.992-.672-.168-2.634-.658-3.311-.942-.609-.629-2.065-2.767-2.867-3.942-17.637-26.655-58.433-26.649-76.065 0-.801 1.176-2.258 3.313-2.868 3.942-.675.283-2.637.774-3.308.942zm22.705 6.377c9.982-15.081 33.03-15.077 43.009 0 5.609 8.232 8.096 10.587 17.856 13.026 15.864 4.45 13.151 27.154-3.361 27.588h-72c-16.524-.439-19.215-23.146-3.36-27.588 9.759-2.44 12.246-4.794 17.856-13.026z" fill="#214d62" data-original="#020288" style="" class=""/><path d="m256.001 199.086c39.982-.506 39.963-70.953 0-71.447-14.907 0-29.999 12.271-29.999 35.724 0 10.404 3.016 19.352 8.723 25.876 5.473 6.258 13.228 9.847 21.276 9.847zm0-51.447c2.313 0 4.523 1.07 6.223 3.014 6.896 8.066 4.288 28.694-6.223 28.432-13.385.133-13.377-31.584 0-31.446z" fill="#214d62" data-original="#020288" style="" class=""/><path d="m156.77 200.875c3.729 13.92 12.424 23.66 23.855 26.723 9.523 2.583 19.699-.043 26.803-7.182 15.27-14.049 9.542-46.693-7.826-57.807-6.908-4.628-15.328-6.088-23.101-4.004-14.4 3.858-25.802 19.617-19.731 42.27zm19.677-18.43c1.139-2.318 2.997-3.924 5.23-4.522 11.296-3.324 19.403 20.855 11.607 28.351-1.981 1.98-4.78 2.73-7.484 2.005-4.342-1.163-7.882-5.749-9.713-12.581-1.42-5.302-1.295-9.885.36-13.253z" fill="#214d62" data-original="#020288" style="" class=""/><path d="m324.07 228.568c2.422 0 4.876-.319 7.308-.971 11.431-3.063 20.125-12.803 23.855-26.723 2.693-10.05 2.095-19.473-1.729-27.252-3.667-7.462-10.229-12.936-18.003-15.019-7.774-2.082-16.193-.624-23.101 4.004-17.371 11.123-23.095 43.753-7.825 57.807 5.314 5.315 12.267 8.154 19.495 8.154zm-7.474-38.046c2.849-9.904 7.872-13.805 13.729-12.6 2.233.599 4.091 2.205 5.23 4.522 1.655 3.368 1.779 7.951.359 13.253-1.831 6.832-5.371 11.417-9.713 12.581-9.495 1.756-12.269-8.418-9.605-17.756z" fill="#214d62" data-original="#020288" style="" class=""/></g></g></g></svg>
