<?xml version="1.0" encoding="utf-8"?>
<!-- Generator: Adobe Illustrator 22.0.1, SVG Export Plug-In . SVG Version: 6.00 Build 0)  -->
<svg version="1.1" id="Calque_1" xmlns="http://www.w3.org/2000/svg" xmlns:xlink="http://www.w3.org/1999/xlink" x="0px" y="0px"
	 viewBox="0 0 286.8 188.6" style="enable-background:new 0 0 286.8 188.6;" xml:space="preserve">
<style type="text/css">
	.st0{fill:none;stroke:#F4B01B;stroke-width:8;stroke-miterlimit:10;}
	.st1{fill:#F4B01B;}
	.st2{fill:none;stroke:#214D62;stroke-width:8;stroke-miterlimit:10;}
</style>
<g>
	<path class="st0" d="M16.9-277.9c10-0.8,18,7,24.4,14.2s4.7,22.4,5.4,31.3c1.1,14.6,3.8,29,6.5,43.4c1.3,7.1,2.6,14.3,4,21.4"/>
	<line class="st0" x1="120.9" y1="-278.7" x2="120.9" y2="-253.2"/>
	<line class="st0" x1="133.6" y1="-265.5" x2="108.1" y2="-265.5"/>
	<path class="st0" d="M290.3-275.2c-7.1-29.1-17-55.5-25.7-66.9l-48.3-26.4L197-354.4h-87.7L90-368.5l-48.3,26.4
		C33-330.7,23.1-304.3,16-275.2c-6.6,26.9-10.8,56.1-9.5,78.1c2.6,45.7,36.9,36,36.9,36c3.3-0.7,8.3-2.3,13.6-5.7
		c1.3-0.8,5.7-3.8,9.3-8.2c7-8.4,8.2-17.9,8.7-22.1c3.5-31.6,38.7-32.5,38.7-32.5h78.9c0,0,35.2,0.9,38.7,32.5
		c0.5,4.3,1.7,13.7,8.7,22.1c3.7,4.4,8,7.3,9.3,8.2c5.3,3.4,10.3,5,13.6,5.7c0,0,34.3,9.7,36.9-36
		C301.1-219.1,296.9-248.3,290.3-275.2z M93.1-287.2c-12.1,0-22-9.8-22-22s9.8-22,22-22s22,9.8,22,22S105.2-287.2,93.1-287.2z"/>
	<path class="st0" d="M288.8-277.9c-10-0.8-18,7-24.4,14.2s-4.7,22.4-5.4,31.3c-1.1,14.6-3.8,29-6.5,43.4c-1.3,7.1-2.6,14.3-4,21.4"
		/>
	<circle class="st0" cx="198.9" cy="-272.6" r="15.6"/>
</g>
<g>
	<g>
		<circle class="st1" cx="223.2" cy="-334" r="5.9"/>
	</g>
	<g>
		<circle class="st1" cx="223.2" cy="-310.4" r="5.9"/>
	</g>
	<g>
		<circle class="st1" cx="210.3" cy="-322.2" r="5.9"/>
	</g>
	<g>
		<circle class="st1" cx="236.2" cy="-322.2" r="5.9"/>
	</g>
</g>
<g>
	<path class="st0" d="M603-187.7c0,0-0.9,7.5-4.9,14.6c-7.3,13.3-33.4,32.1-48.7,24.3c-8-4.1-7.4-12.6-19.5-19.5
		c-4.3-2.5-19.7-2.5-24.1,0c-12.1,6.9-11.4,15.4-19.5,19.5c-15.3,7.7-41.4-11-48.7-24.3c-3.9-7.2-4.9-14.6-4.9-14.6
		c-0.1-0.9-0.6-4.7,0-9.7c1.2-10.8,6.2-19.4,9.7-24.3c9.7-16.2,19.5-32.5,29.2-48.7c0,0,13.1-17.5,43.5-19.3c0.7,0,1.3,0,2-0.1h1.1
		c0.7,0,1.4,0,2,0.1c30.4,1.9,43.5,19.3,43.5,19.3c9.7,16.2,19.5,32.5,29.2,48.7c3.5,5,8.5,13.6,9.7,24.3
		C603.5-192.5,603.1-188.6,603-187.7z"/>
	<ellipse class="st0" cx="413.3" cy="-283.7" rx="29.2" ry="35.5"/>
	<ellipse class="st0" cx="627.6" cy="-283.7" rx="29.2" ry="35.5"/>
	<ellipse class="st0" cx="481.5" cy="-347" rx="29.2" ry="35.5"/>
	<ellipse class="st0" cx="559.4" cy="-347" rx="29.2" ry="35.5"/>
</g>
<path class="st0" d="M-299.7-159.2h-67.1c-27.5,0-27.5-27.5-27.5-27.5v-117.4c0,0,0-27.5,27.5-27.5h50.4
	c-28.6,16.3-47.9,47.1-47.9,82.5C-364.4-207.3-337.3-171.9-299.7-159.2z"/>
<path class="st0" d="M-99.5-304.1v117.4c0,0,0,27.5-27.5,27.5h-112.1c37.6-12.6,64.6-48.1,64.6-90c0-35.3-19.3-66.2-47.9-82.5h95.4
	C-99.5-331.6-99.5-304.1-99.5-304.1z"/>
<path class="st0" d="M-332.6-330.7l13.2-33.4c0,0,50-30,100,0l10.4,32"/>
<ellipse class="st0" cx="-137" cy="-306.6" rx="17.5" ry="7.5"/>
<path class="st0" d="M-294.4-233.2c2.9-2.9,5.9-5.9,8.8-8.8"/>
<line class="st0" x1="-279.4" y1="-229.8" x2="-261.2" y2="-248"/>
<path class="st0" d="M-281.4-246.2c6.5-6.5,13-13,19.5-19.5"/>
<path class="st0" d="M-258.6-250.6c2.9-2.9,5.9-5.9,8.8-8.8"/>
<circle class="st0" cx="-269.4" cy="-249.2" r="50"/>
<circle class="st0" cx="-269.4" cy="-249.2" r="95"/>
<line class="st0" x1="-394.4" y1="-286.2" x2="-379.3" y2="-286.2"/>
<line class="st0" x1="-114.5" y1="-286.2" x2="-99.5" y2="-286.2"/>
<line class="st0" x1="-114.5" y1="-206.2" x2="-99.5" y2="-206.2"/>
<line class="st0" x1="-394.4" y1="-206.2" x2="-379.3" y2="-206.2"/>
<g>
	<rect x="6.1" y="6" class="st2" width="275.2" height="176.9"/>
	<line class="st2" x1="6.1" y1="30.6" x2="281.3" y2="30.6"/>
	<line class="st2" x1="30.7" y1="30.6" x2="30.7" y2="6.1"/>
	<line class="st2" x1="53.6" y1="30.6" x2="53.6" y2="6.1"/>
	<line class="st2" x1="76.5" y1="30.6" x2="76.5" y2="6.1"/>
	<line class="st2" x1="99.5" y1="30.6" x2="99.5" y2="6.1"/>
	<line class="st2" x1="122.4" y1="30.6" x2="122.4" y2="6.1"/>
	<polygon class="st2" points="106,56.8 106,128.8 178.1,96.1 	"/>
	<line class="st2" x1="6.1" y1="155.1" x2="281.3" y2="155.1"/>
	<line class="st2" x1="145.3" y1="30.6" x2="145.3" y2="6.1"/>
	<line class="st2" x1="168.2" y1="30.6" x2="168.2" y2="6.1"/>
	<line class="st2" x1="191.2" y1="30.6" x2="191.2" y2="6.1"/>
	<line class="st2" x1="214.1" y1="30.6" x2="214.1" y2="6.1"/>
	<line class="st2" x1="237" y1="30.6" x2="237" y2="6.1"/>
	<line class="st2" x1="260" y1="30.6" x2="260" y2="6.1"/>
	<line class="st2" x1="30.7" y1="182.9" x2="30.7" y2="156.7"/>
	<line class="st2" x1="53.6" y1="182.9" x2="53.6" y2="156.7"/>
	<line class="st2" x1="76.5" y1="182.9" x2="76.5" y2="156.7"/>
	<line class="st2" x1="99.5" y1="182.9" x2="99.5" y2="156.7"/>
	<line class="st2" x1="122.4" y1="182.9" x2="122.4" y2="156.7"/>
	<line class="st2" x1="145.3" y1="182.9" x2="145.3" y2="156.7"/>
	<line class="st2" x1="168.2" y1="182.9" x2="168.2" y2="156.7"/>
	<line class="st2" x1="191.2" y1="182.9" x2="191.2" y2="156.7"/>
	<line class="st2" x1="214.1" y1="182.9" x2="214.1" y2="156.7"/>
	<line class="st2" x1="237" y1="182.9" x2="237" y2="156.7"/>
	<line class="st2" x1="260" y1="182.9" x2="260" y2="156.7"/>
</g>
</svg>
