<?xml version="1.0"?>
<svg xmlns="http://www.w3.org/2000/svg" xmlns:xlink="http://www.w3.org/1999/xlink" xmlns:svgjs="http://svgjs.com/svgjs" version="1.1" width="512" height="512" x="0" y="0" viewBox="0 0 512 512" style="enable-background:new 0 0 512 512" xml:space="preserve" class=""><g><g xmlns="http://www.w3.org/2000/svg"><g><g><g><g><path d="m312.493 323.768-75.153 46.228c-11.339 6.975-25.935-1.183-25.935-14.496v-92.455c0-13.312 14.596-21.47 25.935-14.496l75.153 46.228c10.802 6.645 10.802 22.347 0 28.991z" fill="#ffffff" data-original="#e2c4ff" style="" class=""/></g></g></g><g><g><g><g><path d="m268.39 127.375-92.7 62.7h-103.4l92.7-62.7z" fill="#ffffff" data-original="#e2c4ff" style="" class=""/></g></g></g><g><g><g><path d="m97.06 127.375-87.06 57.06v-57.06z" fill="#ffffff" data-original="#e2c4ff" style="" class=""/></g></g></g><g><g><g><path d="m439.72 127.375-92.7 62.7h-103.4l92.69-62.7z" fill="#ffffff" data-original="#e2c4ff" style="" class=""/></g></g></g><g><g><g><path d="m502 133.026v57.049h-87.05z" fill="#ffffff" data-original="#e2c4ff" style="" class=""/></g></g></g></g><g><g><g><g><path d="m243.61 64.675 92.7 62.7h103.4l-92.7-62.7z" fill="#ffffff" data-original="#e2c4ff" style="" class=""/></g></g></g><g><g><g><path d="m414.94 64.675 87.06 57.06v-57.06z" fill="#ffffff" data-original="#e2c4ff" style="" class=""/></g></g></g><g><g><g><path d="m72.28 64.675 92.7 62.7h103.4l-92.69-62.7z" fill="#ffffff" data-original="#e2c4ff" style="" class=""/></g></g></g><g><g><g><path d="m10 70.326v57.049h87.05z" fill="#ffffff" data-original="#e2c4ff" style="" class=""/></g></g></g></g></g><g><g><path d="m502 54.676h-492c-5.523 0-10 4.478-10 10v358.035c0 19.086 15.528 34.613 34.614 34.613h442.772c19.086 0 34.614-15.527 34.614-34.613v-358.035c0-5.523-4.478-10-10-10zm-482 82.699h472v42.7h-472zm0-62.699h472v42.699h-472zm472 348.035c0 8.058-6.556 14.613-14.614 14.613h-442.772c-8.058 0-14.614-6.556-14.614-14.613v-222.636h472z" fill="#214d62" data-original="#020288" style="" class=""/></g></g></g></g></svg>
