<?xml version="1.0" encoding="utf-8"?>
<!-- Generator: Adobe Illustrator 22.0.1, SVG Export Plug-In . SVG Version: 6.00 Build 0)  -->
<svg version="1.1" id="Calque_1" xmlns="http://www.w3.org/2000/svg" xmlns:xlink="http://www.w3.org/1999/xlink" x="0px" y="0px"
	 viewBox="0 0 309.7 240.4" style="enable-background:new 0 0 309.7 240.4;" xml:space="preserve">
<style type="text/css">
	.st0{fill:none;stroke:#F4B01B;stroke-width:8;stroke-miterlimit:10;}
	.st1{fill:#F4B01B;}
	.st2{fill:none;stroke:#214D62;stroke-width:8;stroke-miterlimit:10;}
</style>
<g>
	<path class="st0" d="M27.8-258.4c10-0.8,18,7,24.4,14.2s4.7,22.4,5.4,31.3c1.1,14.6,3.8,29,6.5,43.4c1.3,7.1,2.6,14.3,4,21.4"/>
	<line class="st0" x1="131.8" y1="-259.1" x2="131.8" y2="-233.6"/>
	<line class="st0" x1="144.6" y1="-245.9" x2="119.1" y2="-245.9"/>
	<path class="st0" d="M301.2-255.6c-7.1-29.1-17-55.5-25.7-66.9l-48.3-26.4l-19.3,14.1h-87.7l-19.3-14.1l-48.3,26.4
		c-8.7,11.4-18.5,37.8-25.6,66.9c-6.6,26.9-10.8,56.1-9.5,78.1c2.6,45.7,36.9,36,36.9,36c3.3-0.7,8.3-2.3,13.6-5.7
		c1.3-0.8,5.7-3.8,9.3-8.2c7-8.4,8.2-17.9,8.7-22.1c3.5-31.6,38.7-32.5,38.7-32.5h78.9c0,0,35.2,0.9,38.7,32.5
		c0.5,4.3,1.7,13.7,8.7,22.1c3.7,4.4,8,7.3,9.3,8.2c5.3,3.4,10.3,5,13.6,5.7c0,0,34.3,9.7,36.9-36
		C312-199.5,307.8-228.7,301.2-255.6z M104-267.6c-12.1,0-22-9.8-22-22s9.8-22,22-22s22,9.8,22,22S116.1-267.6,104-267.6z"/>
	<path class="st0" d="M299.7-258.4c-10-0.8-18,7-24.4,14.2s-4.7,22.4-5.4,31.3c-1.1,14.6-3.8,29-6.5,43.4c-1.3,7.1-2.6,14.3-4,21.4"
		/>
	<circle class="st0" cx="209.8" cy="-253" r="15.6"/>
</g>
<g>
	<g>
		<circle class="st1" cx="234.2" cy="-314.5" r="5.9"/>
	</g>
	<g>
		<circle class="st1" cx="234.2" cy="-290.8" r="5.9"/>
	</g>
	<g>
		<circle class="st1" cx="221.2" cy="-302.6" r="5.9"/>
	</g>
	<g>
		<circle class="st1" cx="247.2" cy="-302.6" r="5.9"/>
	</g>
</g>
<g>
	<path class="st0" d="M613.9-168.2c0,0-0.9,7.5-4.9,14.6c-7.3,13.3-33.4,32.1-48.7,24.3c-8-4.1-7.4-12.6-19.5-19.5
		c-4.3-2.5-19.7-2.5-24.1,0c-12.1,6.9-11.4,15.4-19.5,19.5c-15.3,7.7-41.4-11-48.7-24.3c-3.9-7.2-4.9-14.6-4.9-14.6
		c-0.1-0.9-0.6-4.7,0-9.7c1.2-10.8,6.2-19.4,9.7-24.3c9.7-16.2,19.5-32.5,29.2-48.7c0,0,13.1-17.5,43.5-19.3c0.7,0,1.3,0,2-0.1h1.1
		c0.7,0,1.4,0,2,0.1c30.4,1.9,43.5,19.3,43.5,19.3c9.7,16.2,19.5,32.5,29.2,48.7c3.5,5,8.5,13.6,9.7,24.3
		C614.5-172.9,614.1-169,613.9-168.2z"/>
	<ellipse class="st0" cx="424.3" cy="-264.1" rx="29.2" ry="35.5"/>
	<ellipse class="st0" cx="638.5" cy="-264.1" rx="29.2" ry="35.5"/>
	<ellipse class="st0" cx="492.5" cy="-327.4" rx="29.2" ry="35.5"/>
	<ellipse class="st0" cx="570.4" cy="-327.4" rx="29.2" ry="35.5"/>
</g>
<path class="st2" d="M102.2,227.4H35.1c-27.5,0-27.5-27.5-27.5-27.5V82.4c0,0,0-27.5,27.5-27.5h50.4C56.9,71.2,37.6,102,37.6,137.4
	C37.6,179.2,64.6,214.7,102.2,227.4z"/>
<path class="st2" d="M302.5,82.4v117.4c0,0,0,27.5-27.5,27.5H162.9c37.6-12.6,64.6-48.1,64.6-90c0-35.3-19.3-66.2-47.9-82.5H275
	C302.5,54.9,302.5,82.4,302.5,82.4z"/>
<path class="st2" d="M69.4,55.8l13.2-33.4c0,0,50-30,100,0l10.4,32"/>
<ellipse class="st2" cx="265" cy="79.9" rx="17.5" ry="7.5"/>
<path class="st2" d="M107.6,153.4c2.9-2.9,5.9-5.9,8.8-8.8"/>
<line class="st2" x1="122.5" y1="156.8" x2="140.7" y2="138.6"/>
<path class="st2" d="M120.5,140.4c6.5-6.5,13-13,19.5-19.5"/>
<path class="st2" d="M143.3,136c2.9-2.9,5.9-5.9,8.8-8.8"/>
<circle class="st2" cx="132.5" cy="137.4" r="50"/>
<circle class="st2" cx="132.5" cy="137.4" r="95"/>
<line class="st2" x1="7.6" y1="100.4" x2="22.6" y2="100.4"/>
<line class="st2" x1="287.5" y1="100.4" x2="302.5" y2="100.4"/>
<line class="st2" x1="287.5" y1="180.3" x2="302.5" y2="180.3"/>
<line class="st2" x1="7.6" y1="180.3" x2="22.6" y2="180.3"/>
<g>
	<rect x="1071" y="20.6" class="st0" width="275.2" height="176.9"/>
	<line class="st0" x1="1071" y1="45.1" x2="1346.2" y2="45.1"/>
	<line class="st0" x1="1095.6" y1="45.1" x2="1095.6" y2="20.7"/>
	<line class="st0" x1="1118.5" y1="45.1" x2="1118.5" y2="20.7"/>
	<line class="st0" x1="1141.5" y1="45.1" x2="1141.5" y2="20.7"/>
	<line class="st0" x1="1164.4" y1="45.1" x2="1164.4" y2="20.7"/>
	<line class="st0" x1="1187.3" y1="45.1" x2="1187.3" y2="20.7"/>
	<polygon class="st0" points="1171,71.4 1171,143.4 1243,110.7 	"/>
	<line class="st0" x1="1071" y1="169.6" x2="1346.2" y2="169.6"/>
	<line class="st0" x1="1210.3" y1="45.1" x2="1210.3" y2="20.7"/>
	<line class="st0" x1="1233.2" y1="45.1" x2="1233.2" y2="20.7"/>
	<line class="st0" x1="1256.1" y1="45.1" x2="1256.1" y2="20.7"/>
	<line class="st0" x1="1279.1" y1="45.1" x2="1279.1" y2="20.7"/>
	<line class="st0" x1="1302" y1="45.1" x2="1302" y2="20.7"/>
	<line class="st0" x1="1324.9" y1="45.1" x2="1324.9" y2="20.7"/>
	<line class="st0" x1="1095.6" y1="197.5" x2="1095.6" y2="171.3"/>
	<line class="st0" x1="1118.5" y1="197.5" x2="1118.5" y2="171.3"/>
	<line class="st0" x1="1141.5" y1="197.5" x2="1141.5" y2="171.3"/>
	<line class="st0" x1="1164.4" y1="197.5" x2="1164.4" y2="171.3"/>
	<line class="st0" x1="1187.3" y1="197.5" x2="1187.3" y2="171.3"/>
	<line class="st0" x1="1210.3" y1="197.5" x2="1210.3" y2="171.3"/>
	<line class="st0" x1="1233.2" y1="197.5" x2="1233.2" y2="171.3"/>
	<line class="st0" x1="1256.1" y1="197.5" x2="1256.1" y2="171.3"/>
	<line class="st0" x1="1279.1" y1="197.5" x2="1279.1" y2="171.3"/>
	<line class="st0" x1="1302" y1="197.5" x2="1302" y2="171.3"/>
	<line class="st0" x1="1324.9" y1="197.5" x2="1324.9" y2="171.3"/>
</g>
</svg>
