<?xml version="1.0"?>
<svg xmlns="http://www.w3.org/2000/svg" xmlns:xlink="http://www.w3.org/1999/xlink" xmlns:svgjs="http://svgjs.com/svgjs" version="1.1" width="512" height="512" x="0" y="0" viewBox="0 0 512 512" style="enable-background:new 0 0 512 512" xml:space="preserve" class=""><g><g xmlns="http://www.w3.org/2000/svg"><g clip-rule="evenodd" fill="#b2f0fb" fill-rule="evenodd"><path d="m164.828 198.759 44.796-77.589h-179.624c-11 0-20 9-20 20v140h132c0-30.144 8.336-58.341 22.828-82.411z" fill="#ffffff" data-original="#b2f0fb" style="" class=""/><path d="m394.376 121.17 44.796 77.589c14.492 24.07 22.828 52.267 22.828 82.411h40v-140c0-10.999-9-20-19.999-20z" fill="#ffffff" data-original="#b2f0fb" style="" class=""/></g><g fill="#020288"><path d="m302 151.169c-71.683 0-130 58.317-130 130 7.14 172.463 252.886 172.413 260-.001 0-71.681-58.317-129.999-130-129.999zm110 130c0 3.758-.19 7.473-.56 11.135l-89.44-51.638 60.17-34.739c18.49 19.688 29.83 46.166 29.83 75.242zm-84.923 14.48-25.077 14.478-25.078-14.479v-28.957l25.078-14.478 25.077 14.478zm39.244-103.666-89.399 51.614v-69.544c30.383-7.493 65.236-.091 89.399 17.93zm-109.399-11.148v103.267l-60.225-34.771c9.256-30.553 31.473-55.528 60.225-68.496zm-64.922 100.334c0-3.758.19-7.472.559-11.134l89.441 51.639-60.17 34.739c-18.489-19.689-29.83-46.167-29.83-75.244zm45.68 89.187 89.397-51.613v69.543c-30.383 7.492-65.234.091-89.397-17.93zm109.397 11.149v-103.267l60.225 34.771c-9.255 30.553-31.473 55.528-60.225 68.496z" fill="#214d62" data-original="#020288" style="" class=""/><path d="m482 111.17h-81.851l-17.409-30.152c-4.918-8.521-13.404-19.849-30.24-19.849h-101c-16.836 0-25.322 11.327-30.24 19.848l-17.409 30.153h-68.851v-10.001c0-16.542-13.458-29.999-30-29.999h-35c-16.542 0-30 13.457-30 29.999v10.001h-10c-16.542 0-30 13.458-30 29.999v240.001c0 16.542 13.458 30 30 30h162.572c59.939 52.886 158.93 52.875 218.856 0h70.572c16.542 0 30-13.458 30-30v-240.001c0-16.541-13.458-29.999-30-29.999zm-243.42-20.153c4.779-8.278 8.228-9.848 12.92-9.848h101c4.692 0 8.141 1.569 12.92 9.848l26.529 45.95c-51.625-34.053-128.275-34.051-179.898 0zm-178.58 10.152c0-5.514 4.486-9.999 10-9.999h35c5.514 0 10 4.485 10 9.999v10.001h-55zm-40 280.001v-240.001c0-5.514 4.486-9.999 10-9.999h162.303l-37.528 65c-.14.242-.268.489-.386.737-35.661 59.036-27.267 143.554 18.095 194.263h-142.484c-5.514 0-10-4.486-10-10zm132-100.001c0-82.71 67.29-150 150-150 198.995 8.24 198.937 291.79-.001 300-82.709 0-149.999-67.29-149.999-150zm340 100.001c0 5.514-4.486 10-10 10h-50.485c45.368-50.712 53.752-135.244 18.09-194.272-.116-.246-.243-.489-.381-.728l-37.528-65h70.304c5.514 0 10 4.485 10 9.999z" fill="#214d62" data-original="#020288" style="" class=""/><path d="m105 151.17h-35c-39.809 1.653-39.778 58.362 0 60h35c39.809-1.652 39.778-58.362 0-60zm0 40h-35c-13.27-.551-13.259-19.454 0-20h35c13.27.552 13.259 19.454 0 20z" fill="#214d62" data-original="#020288" style="" class=""/></g></g></g></svg>
