<?xml version="1.0"?>
<svg xmlns="http://www.w3.org/2000/svg" xmlns:xlink="http://www.w3.org/1999/xlink" xmlns:svgjs="http://svgjs.com/svgjs" version="1.1" width="512" height="512" x="0" y="0" viewBox="0 0 512 512" style="enable-background:new 0 0 512 512" xml:space="preserve" class=""><g><g xmlns="http://www.w3.org/2000/svg"><g><path d="m398.999 142.061c-1.475-.847-2.225-2.536-1.903-4.208.532-2.76.813-5.611.813-8.528 0-24.707-19.953-44.737-44.564-44.737h-.104c-1.623.005-3.066-.951-3.709-2.447-5.377-12.506-17.683-21.304-32.066-21.504-11.571-.161-22.118 5.493-28.878 14.189-6.76-8.696-17.306-14.35-28.877-14.189-14.383.2-26.689 8.998-32.066 21.504-.643 1.495-2.086 2.451-3.709 2.447h-.104c-24.612 0-44.564 20.03-44.564 44.737 0 2.917.281 5.768.813 8.528.322 1.672-.428 3.36-1.903 4.208-18.4 10.581-30.808 23.887-30.808 46.702s12.408 36.123 30.808 46.703c1.476.847 2.225 2.536 1.903 4.21-.532 2.76-.813 5.608-.813 8.526 0 24.707 19.953 44.737 44.564 44.737h.104c1.623-.005 3.066.951 3.709 2.449 5.377 12.504 17.683 21.301 32.066 21.501 11.572.161 22.118-5.492 28.877-14.188 6.759 8.696 17.306 14.349 28.878 14.188 14.383-.2 26.689-8.998 32.066-21.501.642-1.497 2.086-2.454 3.709-2.449h.104c24.612 0 44.564-20.03 44.564-44.737 0-2.917-.281-5.766-.813-8.526-.322-1.674.428-3.363 1.903-4.21 18.4-10.579 30.808-23.887 30.808-46.703 0-22.815-12.408-36.121-30.808-46.702z" fill="#ffffff" data-original="#ffbdbc" style="" class=""/></g><g fill="#020288"><path d="m480.037 207.67c-.517-40.454-10.247-78.601-28.139-110.319-18.603-32.978-46.167-59.145-79.714-75.673-29.708-14.633-61.624-21.929-94.803-21.671-16.996.127-33.668 1.663-49.555 4.563-43.235 7.888-78.249 22.585-104.068 43.684-29.558 24.154-47.58 56.965-53.565 97.519-.017.114-.032.229-.045.345l-1.601 14.265c-.014.125-.026.249-.035.374-.387 5.209-.555 48.525-.589 58.915l-32.892 54.099c-.069.114-.135.229-.2.344-3.654 6.586-3.853 14.552-.532 21.308 3.271 6.655 9.556 11.33 16.865 12.569l14.459 3.238v71.068c0 16.833 7.353 32.772 20.174 43.729 12.885 11.012 29.892 15.81 46.655 13.166 39.09-6.167 59.755-8.906 70.677-10.073v72.88c0 5.523 4.477 10 10 10h166.409c2.985 0 5.814-1.333 7.714-3.636 1.899-2.303 2.671-5.333 2.104-8.264l-20.366-105.21c33.089-15.028 60.496-38.61 79.605-68.59 21.137-33.16 32.01-74.182 31.442-118.63zm-126.146 171.939c-4.434 1.793-6.977 6.475-6.068 11.171l19.594 101.22h-144.287v-65.523l46.293-9.467c5.411-1.106 8.9-6.39 7.794-11.801s-6.384-8.899-11.801-7.794l-53.436 10.928c-10.612.384-38.396 4.113-82.644 11.093-10.977 1.733-22.112-1.407-30.545-8.614-8.368-7.151-13.167-17.548-13.167-28.524v-79.077c0-4.681-3.247-8.735-7.814-9.758l-22.565-5.054c-.227-.051-.455-.094-.684-.128-1.396-.212-2.047-1.144-2.311-1.68-.25-.508-.57-1.517.01-2.666l34.213-56.273c.952-1.566 1.456-3.363 1.456-5.195 0-.181-.004-.367-.01-.565 0-8.321.226-54.442.53-59.505l1.557-13.874c10.122-68.109 56.381-108.764 141.415-124.277 14.755-2.694 30.27-4.121 46.114-4.24 30.063-.182 58.928 6.37 85.813 19.613 60.465 29.791 95.708 91.137 96.694 168.307 1.036 81.404-37.653 143.98-106.151 171.683z" fill="#214d62" data-original="#020288" style="" class=""/><path d="m208.823 159.74c-5.523 0-10 4.477-10 10 0 4.976-4.048 9.023-9.023 9.023-5.523 0-10 4.477-10 10s4.477 10 10 10c16.003 0 29.023-13.02 29.023-29.023 0-5.523-4.477-10-10-10z" fill="#214d62" data-original="#020288" style="" class=""/><path d="m257.944 129.909c-1.993 0-3.614-1.621-3.614-3.614 0-5.523-4.477-10-10-10s-10 4.477-10 10c0 13.021 10.593 23.614 23.614 23.614 5.523 0 10-4.477 10-10s-4.477-10-10-10z" fill="#214d62" data-original="#020288" style="" class=""/><path d="m257.944 227.616c-5.523 0-10 4.477-10 10 0 1.993-1.621 3.614-3.614 3.614-5.523 0-10 4.477-10 10s4.477 10 10 10c13.021 0 23.614-10.593 23.614-23.614 0-5.522-4.477-10-10-10z" fill="#214d62" data-original="#020288" style="" class=""/><path d="m387.377 178.763c-16.003 0-29.023 13.02-29.023 29.023 0 5.523 4.477 10 10 10s10-4.477 10-10c0-4.976 4.048-9.023 9.023-9.023 5.523 0 10-4.477 10-10s-4.477-10-10-10z" fill="#214d62" data-original="#020288" style="" class=""/><path d="m332.846 116.296c-13.021 0-23.614 10.593-23.614 23.614 0 5.523 4.477 10 10 10s10-4.477 10-10c0-1.993 1.621-3.614 3.614-3.614 5.523 0 10-4.477 10-10s-4.477-10-10-10z" fill="#214d62" data-original="#020288" style="" class=""/><path d="m319.233 227.616c-5.523 0-10 4.477-10 10s4.477 10 10 10c1.993 0 3.614 1.621 3.614 3.614 0 5.523 4.477 10 10 10s10-4.477 10-10c-.001-13.02-10.594-23.614-23.614-23.614z" fill="#214d62" data-original="#020288" style="" class=""/></g></g></g></svg>
