<?xml version="1.0"?>
<svg xmlns="http://www.w3.org/2000/svg" xmlns:xlink="http://www.w3.org/1999/xlink" xmlns:svgjs="http://svgjs.com/svgjs" version="1.1" width="512" height="512" x="0" y="0" viewBox="0 0 512 512" style="enable-background:new 0 0 512 512" xml:space="preserve" class=""><g><g xmlns="http://www.w3.org/2000/svg"><g><g><g><g><g><g><path d="m63.725 159.324h384.549v145.021h-384.549z" fill="#ffffff" data-original="#e2c4ff" style="" class=""/></g></g></g></g></g></g><g fill="#020288"><path d="m444.843 64.648h-3.694c-5.523 0-10 4.477-10 10s4.477 10 10 10h3.694c5.523 0 10-4.477 10-10s-4.477-10-10-10z" fill="#214d62" data-original="#020288" style="" class=""/><path d="m478.473 22.632h-444.946c-18.487 0-33.527 15.04-33.527 33.528v399.68c0 18.487 15.04 33.527 33.527 33.527h444.946c18.487 0 33.527-15.041 33.527-33.527v-399.68c0-18.488-15.04-33.528-33.527-33.528zm13.527 433.208c0 7.459-6.068 13.527-13.527 13.527h-444.946c-7.459 0-13.527-6.068-13.527-13.527v-329.176h472zm0-349.176h-472v-50.504c0-7.459 6.068-13.527 13.527-13.527h444.946c7.459 0 13.527 6.068 13.527 13.527z" fill="#214d62" data-original="#020288" style="" class=""/><path d="m382.794 64.648h-3.694c-5.523 0-10 4.477-10 10s4.477 10 10 10h3.694c5.523 0 10-4.477 10-10s-4.477-10-10-10z" fill="#214d62" data-original="#020288" style="" class=""/><path d="m320.746 64.648h-3.694c-5.523 0-10 4.477-10 10s4.477 10 10 10h3.694c5.523 0 10-4.477 10-10s-4.477-10-10-10z" fill="#214d62" data-original="#020288" style="" class=""/><path d="m137.468 64.648h-70.311c-5.523 0-10 4.477-10 10s4.477 10 10 10h70.311c5.523 0 10-4.477 10-10s-4.477-10-10-10z" fill="#214d62" data-original="#020288" style="" class=""/><path d="m63.726 446.707h162.274c5.523 0 10-4.477 10-10v-92.511c0-5.523-4.477-10-10-10h-162.274c-5.523 0-10 4.477-10 10v92.511c0 5.523 4.477 10 10 10zm30.444-20 50.395-25.094 50.395 25.094zm121.83-11.866-49-24.399 49-24.399zm-21.08-60.645-50.355 25.074-50.355-25.074zm-121.194 12.143 48.405 24.103-48.405 24.103z" fill="#214d62" data-original="#020288" style="" class=""/><path d="m286 446.707h162.274c5.523 0 10-4.477 10-10v-92.511c0-5.523-4.477-10-10-10h-162.274c-5.523 0-10 4.477-10 10v92.511c0 5.523 4.477 10 10 10zm30.742-20 50.395-25.094 50.395 25.094zm121.532-12.014-48.703-24.251 48.703-24.251zm-20.782-60.497-50.355 25.074-50.355-25.074zm-121.492 11.994 48.703 24.251-48.703 24.252z" fill="#214d62" data-original="#020288" style="" class=""/></g></g></g></svg>
